<svg xmlns="http://www.w3.org/2000/svg" xmlns:xlink="http://www.w3.org/1999/xlink">
    <symbol id="icon-logo" viewBox="0 0 143 23">
        <path d="M7.80297 18.4C5.3695 18.4 3.48268 17.7952 2.14251 16.5856C0.819973 15.3759 0.11462 13.6722 0.0264507 11.4744C0.0088169 11.0144 0 10.2648 0 9.22556C0 8.16926 0.0088169 7.40259 0.0264507 6.92556C0.11462 4.74482 0.82879 3.04963 2.16896 1.84C3.52677 0.613334 5.40477 0 7.80297 0C9.37238 0 10.739 0.264074 11.9028 0.792223C13.0667 1.30333 13.966 2.01037 14.6008 2.91333C15.2356 3.79926 15.5707 4.80444 15.6059 5.92889V5.98C15.6059 6.1163 15.5442 6.23556 15.4208 6.33778C15.315 6.42296 15.1915 6.46556 15.0505 6.46556H12.5377C12.3261 6.46556 12.1673 6.42296 12.0615 6.33778C11.9557 6.25259 11.8676 6.09074 11.797 5.85222C11.5149 4.77889 11.0476 4.02926 10.3951 3.60333C9.74269 3.16037 8.86982 2.93889 7.77652 2.93889C5.23725 2.93889 3.91471 4.31037 3.80891 7.05333C3.79127 7.51333 3.78246 8.22037 3.78246 9.17445C3.78246 10.1285 3.79127 10.8526 3.80891 11.3467C3.91471 14.0896 5.23725 15.4611 7.77652 15.4611C8.86982 15.4611 9.74269 15.2396 10.3951 14.7967C11.0652 14.3537 11.5325 13.6041 11.797 12.5478C11.8499 12.3093 11.9293 12.1474 12.0351 12.0622C12.1585 11.977 12.3261 11.9344 12.5377 11.9344H15.0505C15.2092 11.9344 15.3414 11.9856 15.4472 12.0878C15.5707 12.19 15.6236 12.3178 15.6059 12.4711C15.5707 13.5956 15.2356 14.6093 14.6008 15.5122C13.966 16.3981 13.0667 17.1052 11.9028 17.6333C10.739 18.1444 9.37238 18.4 7.80297 18.4Z" fill="#122659"/>
        <path d="M19.0867 18.1444C18.9104 18.1444 18.7605 18.0848 18.637 17.9656C18.5136 17.8463 18.4519 17.7015 18.4519 17.5311V0.613333C18.4519 0.425926 18.5136 0.281112 18.637 0.17889C18.7605 0.0596299 18.9104 0 19.0867 0H21.2821C21.4761 0 21.626 0.0596299 21.7318 0.17889C21.8552 0.281112 21.9169 0.425926 21.9169 0.613333V17.5311C21.9169 17.7015 21.8552 17.8463 21.7318 17.9656C21.626 18.0848 21.4761 18.1444 21.2821 18.1444H19.0867Z" fill="#122659"/>
        <path d="M31.3505 18.4C29.3932 18.4 27.8326 17.8548 26.6688 16.7644C25.5226 15.657 24.9142 14.1067 24.8437 12.1133L24.8172 11.4744L24.8437 10.8356C24.9318 8.89333 25.549 7.36852 26.6952 6.26111C27.859 5.1537 29.4108 4.6 31.3505 4.6C33.4313 4.6 35.036 5.21333 36.1646 6.44C37.3108 7.66667 37.8839 9.30222 37.8839 11.3467V11.8833C37.8839 12.0537 37.8222 12.1985 37.6987 12.3178C37.5753 12.437 37.4166 12.4967 37.2226 12.4967H28.441V12.7011C28.4762 13.6381 28.7407 14.4304 29.2345 15.0778C29.7459 15.7081 30.4424 16.0233 31.3241 16.0233C32.3645 16.0233 33.2021 15.6315 33.8369 14.8478C33.9956 14.6604 34.1191 14.5411 34.2072 14.49C34.313 14.4389 34.4629 14.4133 34.6569 14.4133H36.9317C37.0904 14.4133 37.2226 14.4644 37.3284 14.5667C37.4519 14.6519 37.5136 14.7626 37.5136 14.8989C37.5136 15.3078 37.2579 15.7933 36.7465 16.3556C36.2528 16.9007 35.5386 17.3778 34.604 17.7867C33.6694 18.1956 32.5849 18.4 31.3505 18.4ZM34.2866 10.35V10.2733C34.2866 9.26815 34.0221 8.45889 33.4931 7.84556C32.9817 7.23222 32.2675 6.92556 31.3505 6.92556C30.4336 6.92556 29.7194 7.23222 29.208 7.84556C28.6967 8.45889 28.441 9.26815 28.441 10.2733V10.35H34.2866Z" fill="#122659"/>
        <path d="M45.0677 18.1444C44.8032 18.1444 44.6004 18.0933 44.4594 17.9911C44.3183 17.8719 44.2037 17.71 44.1155 17.5056L39.1692 5.64778L39.1163 5.41778C39.1163 5.26444 39.1692 5.13667 39.275 5.03445C39.3985 4.91519 39.5395 4.85556 39.6982 4.85556H41.8408C42.1758 4.85556 42.405 5.01741 42.5285 5.34111L46.0464 14.3111L49.5644 5.34111C49.6173 5.22185 49.6966 5.11111 49.8024 5.00889C49.9259 4.90667 50.0758 4.85556 50.2521 4.85556H52.4211C52.5621 4.85556 52.6856 4.91519 52.7914 5.03445C52.9148 5.13667 52.9765 5.26444 52.9765 5.41778C52.9765 5.52 52.9677 5.59667 52.9501 5.64778L47.9773 17.5056C47.8892 17.71 47.7745 17.8719 47.6335 17.9911C47.4924 18.0933 47.2896 18.1444 47.0251 18.1444H45.0677Z" fill="#122659"/>
        <path d="M60.8235 18.4C58.8661 18.4 57.3056 17.8548 56.1417 16.7644C54.9955 15.657 54.3872 14.1067 54.3166 12.1133L54.2902 11.4744L54.3166 10.8356C54.4048 8.89333 55.022 7.36852 56.1682 6.26111C57.332 5.1537 58.8838 4.6 60.8235 4.6C62.9043 4.6 64.509 5.21333 65.6375 6.44C66.7837 7.66667 67.3568 9.30222 67.3568 11.3467V11.8833C67.3568 12.0537 67.2951 12.1985 67.1717 12.3178C67.0482 12.437 66.8895 12.4967 66.6956 12.4967H57.9139V12.7011C57.9492 13.6381 58.2137 14.4304 58.7074 15.0778C59.2188 15.7081 59.9154 16.0233 60.7971 16.0233C61.8375 16.0233 62.6751 15.6315 63.3099 14.8478C63.4686 14.6604 63.592 14.5411 63.6802 14.49C63.786 14.4389 63.9359 14.4133 64.1299 14.4133H66.4046C66.5633 14.4133 66.6956 14.4644 66.8014 14.5667C66.9248 14.6519 66.9865 14.7626 66.9865 14.8989C66.9865 15.3078 66.7308 15.7933 66.2195 16.3556C65.7257 16.9007 65.0115 17.3778 64.077 17.7867C63.1424 18.1956 62.0579 18.4 60.8235 18.4ZM63.7595 10.35V10.2733C63.7595 9.26815 63.495 8.45889 62.966 7.84556C62.4546 7.23222 61.7405 6.92556 60.8235 6.92556C59.9065 6.92556 59.1924 7.23222 58.681 7.84556C58.1696 8.45889 57.9139 9.26815 57.9139 10.2733V10.35H63.7595Z" fill="#122659"/>
        <path d="M70.7994 18.1444C70.623 18.1444 70.4731 18.0848 70.3497 17.9656C70.2263 17.8463 70.1645 17.7015 70.1645 17.5311V5.49444C70.1645 5.32407 70.2263 5.17926 70.3497 5.06C70.4731 4.9237 70.623 4.85556 70.7994 4.85556H72.9419C73.1358 4.85556 73.2945 4.91519 73.418 5.03445C73.5414 5.1537 73.6031 5.30704 73.6031 5.49444V6.54222C74.0264 5.99704 74.5554 5.57963 75.1902 5.29C75.8426 5.00037 76.5833 4.85556 77.412 4.85556H78.4965C78.6905 4.85556 78.8404 4.91519 78.9462 5.03445C79.0696 5.13667 79.1314 5.28148 79.1314 5.46889V7.30889C79.1314 7.47926 79.0696 7.62407 78.9462 7.74333C78.8404 7.86259 78.6905 7.92222 78.4965 7.92222H76.4334C75.6046 7.92222 74.9521 8.15222 74.476 8.61222C73.9999 9.07222 73.7618 9.70259 73.7618 10.5033V17.5311C73.7618 17.7015 73.7001 17.8463 73.5767 17.9656C73.4533 18.0848 73.2946 18.1444 73.1006 18.1444H70.7994Z" fill="#122659"/>
        <path d="M82.1465 18.1444C81.9702 18.1444 81.8203 18.0848 81.6969 17.9656C81.5734 17.8463 81.5117 17.7015 81.5117 17.5311V0.894445C81.5117 0.707037 81.5646 0.553704 81.6704 0.434445C81.7939 0.315185 81.9526 0.255555 82.1465 0.255555H89.8172C91.8804 0.255555 93.4146 0.698519 94.4197 1.58445C95.4424 2.45333 95.9538 3.64593 95.9538 5.16222C95.9538 6.04815 95.7246 6.8063 95.2661 7.43667C94.8253 8.05 94.3051 8.49296 93.7055 8.76556C94.4461 9.08926 95.0633 9.61741 95.5571 10.35C96.0684 11.0826 96.3241 11.9174 96.3241 12.8544C96.3241 14.4389 95.7687 15.7167 94.6577 16.6878C93.5644 17.6589 92.0215 18.1444 90.0289 18.1444H82.1465ZM89.3411 7.59C90.2581 7.59 90.9546 7.37704 91.4307 6.95111C91.9069 6.52519 92.1449 5.95444 92.1449 5.23889C92.1449 4.5063 91.9069 3.94407 91.4307 3.55222C90.9546 3.14333 90.2581 2.93889 89.3411 2.93889H85.1884V7.59H89.3411ZM89.6056 15.4356C90.5226 15.4356 91.2368 15.197 91.7482 14.72C92.2595 14.2259 92.5152 13.6041 92.5152 12.8544C92.5152 12.0878 92.2595 11.4659 91.7482 10.9889C91.2368 10.4948 90.5226 10.2478 89.6056 10.2478H85.1884V15.4356H89.6056Z" fill="#122659"/>
        <path d="M103.322 18.4C102.422 18.4 101.593 18.2296 100.835 17.8889C100.095 17.5311 99.5039 17.0541 99.063 16.4578C98.6398 15.8615 98.4282 15.2056 98.4282 14.49C98.4282 13.3315 98.9131 12.3944 99.883 11.6789C100.853 10.9633 102.184 10.4778 103.877 10.2222L107.501 9.71111V9.17445C107.501 8.42482 107.307 7.86259 106.919 7.48778C106.531 7.11296 105.905 6.92556 105.041 6.92556C104.459 6.92556 103.983 7.0363 103.613 7.25778C103.26 7.46222 102.978 7.66667 102.766 7.87111C102.555 8.09259 102.413 8.23741 102.343 8.30556C102.272 8.51 102.14 8.61222 101.946 8.61222H99.9095C99.7507 8.61222 99.6097 8.56111 99.4862 8.45889C99.3804 8.35667 99.3275 8.22037 99.3275 8.05C99.3452 7.62407 99.5568 7.13852 99.9623 6.59333C100.386 6.04815 101.029 5.57963 101.893 5.18778C102.757 4.79593 103.815 4.6 105.067 4.6C107.148 4.6 108.665 5.05148 109.617 5.95444C110.569 6.85741 111.045 8.04148 111.045 9.50667V17.5311C111.045 17.7015 110.983 17.8463 110.86 17.9656C110.754 18.0848 110.604 18.1444 110.41 18.1444H108.268C108.092 18.1444 107.942 18.0848 107.818 17.9656C107.695 17.8463 107.633 17.7015 107.633 17.5311V16.5344C107.245 17.0796 106.69 17.5311 105.967 17.8889C105.261 18.2296 104.38 18.4 103.322 18.4ZM104.221 15.9722C105.191 15.9722 105.984 15.6656 106.601 15.0522C107.219 14.4389 107.527 13.5444 107.527 12.3689V11.8322L104.882 12.2411C103.859 12.3944 103.084 12.6415 102.555 12.9822C102.043 13.323 101.787 13.7404 101.787 14.2344C101.787 14.7796 102.026 15.2056 102.502 15.5122C102.978 15.8189 103.551 15.9722 104.221 15.9722Z" fill="#122659"/>
        <path d="M122.056 18.4C120.24 18.4 118.829 17.7952 117.824 16.5856V17.5311C117.824 17.7015 117.763 17.8463 117.639 17.9656C117.533 18.0848 117.383 18.1444 117.189 18.1444H115.1C114.923 18.1444 114.774 18.0848 114.65 17.9656C114.527 17.8463 114.465 17.7015 114.465 17.5311V0.613333C114.465 0.425926 114.527 0.281112 114.65 0.17889C114.774 0.0596299 114.923 0 115.1 0H117.348C117.542 0 117.692 0.0596299 117.798 0.17889C117.921 0.281112 117.983 0.425926 117.983 0.613333V6.28667C118.988 5.16222 120.346 4.6 122.056 4.6C123.837 4.6 125.204 5.16222 126.156 6.28667C127.108 7.41111 127.62 8.86778 127.69 10.6567C127.708 10.8611 127.717 11.1337 127.717 11.4744C127.717 11.8322 127.708 12.1133 127.69 12.3178C127.62 14.1578 127.108 15.6315 126.156 16.7389C125.204 17.8463 123.837 18.4 122.056 18.4ZM121.078 15.6656C122.982 15.6656 123.996 14.5326 124.12 12.2667C124.137 12.0963 124.146 11.8407 124.146 11.5C124.146 11.1593 124.137 10.9037 124.12 10.7333C123.996 8.46741 122.982 7.33444 121.078 7.33444C120.09 7.33444 119.332 7.64111 118.803 8.25445C118.292 8.85074 118.018 9.57481 117.983 10.4267L117.957 11.3978L117.983 12.3944C118.036 13.3144 118.309 14.0896 118.803 14.72C119.297 15.3504 120.055 15.6656 121.078 15.6656Z" fill="#122659"/>
        <path d="M132.578 23C132.437 23 132.314 22.9489 132.208 22.8467C132.102 22.7444 132.049 22.6252 132.049 22.4889C132.049 22.3356 132.085 22.1993 132.155 22.08L134.218 17.3522L129.14 5.77556C129.069 5.62222 129.034 5.50296 129.034 5.41778C129.052 5.26444 129.113 5.13667 129.219 5.03445C129.325 4.91519 129.457 4.85556 129.616 4.85556H131.758C132.093 4.85556 132.332 5.01741 132.473 5.34111L135.991 13.6978L139.614 5.34111C139.755 5.01741 139.993 4.85556 140.328 4.85556H142.445C142.586 4.85556 142.709 4.90667 142.815 5.00889C142.938 5.11111 143 5.23037 143 5.36667C143 5.48593 142.965 5.62222 142.894 5.77556L135.409 22.5144C135.25 22.8382 135.003 23 134.668 23H132.578Z" fill="#122659"/>
    </symbol>
    <symbol id="icon-phone" viewBox="0 0 15 15">
        <path d="M11.404 9.92279C10.9139 9.43898 10.3021 9.43898 9.8152 9.92279C9.44375 10.2911 9.0723 10.6594 8.7071 11.034C8.60721 11.137 8.52294 11.1588 8.4012 11.0902C8.16085 10.9591 7.9049 10.853 7.67391 10.7094C6.59703 10.032 5.69494 9.16118 4.89587 8.18108C4.49945 7.69414 4.14673 7.17288 3.90014 6.58606C3.8502 6.46745 3.85956 6.38942 3.95632 6.29266C4.32777 5.9337 4.68985 5.56538 5.05506 5.19706C5.56385 4.68516 5.56385 4.08586 5.05194 3.57083C4.76165 3.27743 4.47135 2.99026 4.18106 2.69685C3.88141 2.3972 3.58488 2.09443 3.2821 1.7979C2.79204 1.32033 2.18025 1.32033 1.69331 1.80102C1.31874 2.16934 0.959777 2.54703 0.578966 2.9091C0.226247 3.24309 0.0483275 3.65199 0.0108707 4.12956C-0.048436 4.90677 0.14197 5.64029 0.41041 6.35508C0.959777 7.83461 1.79631 9.1487 2.81077 10.3535C4.18106 11.9829 5.81668 13.272 7.7301 14.2022C8.59161 14.6204 9.48433 14.9419 10.4551 14.995C11.1231 15.0325 11.7036 14.8639 12.1687 14.3426C12.4871 13.9868 12.8461 13.6622 13.1832 13.3219C13.6826 12.8163 13.6857 12.2045 13.1894 11.7051C12.5964 11.1089 12.0002 10.5159 11.404 9.92279Z" fill="#122659"/>
        <path d="M10.8075 7.43508L11.9593 7.23843C11.7783 6.18029 11.2789 5.22203 10.5204 4.46042C9.71817 3.65823 8.70371 3.15257 7.58625 2.9965L7.42394 4.15453C8.28857 4.27626 9.07516 4.66643 9.69632 5.28758C10.2831 5.8744 10.6671 6.61728 10.8075 7.43508Z" fill="#122659"/>
        <path d="M12.609 2.42842C11.2793 1.09872 9.59684 0.259073 7.73961 0L7.57729 1.15802C9.1817 1.38276 10.6363 2.11004 11.785 3.25558C12.8743 4.34493 13.5891 5.72145 13.8482 7.23531L15 7.03866C14.6972 5.28446 13.8701 3.69257 12.609 2.42842Z" fill="#122659"/>
    </symbol>
    <svg id="decorate-car" viewBox="0 0 106 84">
        <path d="M75.4729 53.8567C76.8017 54.9324 78.7536 54.4046 79.6636 53.0228C80.681 51.4766 79.7815 49.1313 77.8394 48.9269C77.6569 48.9081 77.5037 48.8253 77.3883 48.7077C76.4746 48.6957 75.6074 48.9616 74.9264 49.7541C73.8677 50.9889 74.2646 52.8785 75.4729 53.8567ZM72.7162 49.4694C73.8526 47.1335 77.2356 45.7022 79.5421 47.1963C79.7757 47.3473 79.9024 47.5598 79.953 47.7829C81.6866 48.5727 82.7456 50.7189 82.2278 52.7275C81.492 55.5859 78.2274 57.5129 75.441 56.2888C72.9545 55.197 71.4897 51.9925 72.7162 49.4694Z" fill="#8DD9E5"/>
        <path d="M5.04958 66.9503C6.7424 71.9413 9.8143 76.3153 11.8596 81.1544C11.965 81.0515 12.0838 80.9539 12.2307 80.8699C16.0195 78.6821 20.1501 77.1651 24.3875 76.1149C22.6079 73.1148 22.1006 69.4602 23.6746 65.627C25.9121 60.1788 34.7921 52.0753 40.43 57.8617L40.6402 58.1691C44.5472 58.7812 47.9192 61.5046 49.6845 65.0408C52.6591 63.9822 55.5753 62.8034 58.443 61.4807C60.6922 60.4409 62.932 58.9388 65.3523 58.3736C64.5048 56.9517 63.8895 55.3788 63.6042 53.6923C62.3563 46.321 67.772 38.8574 75.2174 38.0984C75.7102 38.049 76.0768 38.2173 76.3318 38.494C81.2109 38.1732 86.3425 40.6081 89.4136 44.5329C93.8436 42.9854 98.4098 41.7213 102.927 40.4704C103.187 40.3969 103.407 40.4237 103.606 40.4838C94.9289 28.613 82.1178 12.3389 66.4088 24.1135C65.1561 25.0529 63.8968 23.2462 64.6284 22.1116C57.1752 10.0163 44.821 0.315671 29.773 4.4116C11.3776 9.41758 7.64888 31.0304 16.2131 46.0243C16.5776 46.6644 16.5402 47.2631 16.2758 47.7308C16.5228 48.5153 16.1824 49.4654 15.1491 49.3505C4.57964 48.1678 2.34081 58.9616 5.04958 66.9503ZM38.7111 80.0957C43.7394 79.5946 48.0084 75.0515 47.6845 69.8407C47.3398 64.2855 42.5358 61.0678 37.6009 59.9637C37.3845 59.9141 37.239 59.8113 37.1284 59.6872C31.7194 58.6475 26.1163 65.1181 25.9508 70.179C25.7452 76.4933 33.0932 80.6533 38.7111 80.0957ZM78.4136 62.4386C84.2962 61.9244 90.0535 56.3797 88.5672 50.2298C87.2812 44.9098 81.456 41.3591 76.0319 40.997C75.9115 41.0798 75.7915 41.164 75.6388 41.2134C70.8108 42.7369 66.4651 46.4319 66.5507 51.9457C66.6456 58.0729 72.4889 62.9585 78.4136 62.4386ZM0.402344 56.5374C1.63992 50.8031 6.36592 46.0537 12.0078 46.166C2.76936 30.7658 8.7329 8.30708 26.0949 1.84714C42.1927 -4.1424 59.8917 5.06508 66.4063 20.3677C71.7907 16.0299 79.8128 16.1434 86.0577 18.7079C95.2303 22.4738 101.203 31.4033 105.835 39.7328C106.443 40.8286 105.238 41.6892 104.342 41.2442C104.511 41.8201 104.302 42.5298 103.57 42.8024C99.4425 44.3485 95.2725 45.9014 91.0548 47.2097C91.2764 47.6854 91.4802 48.1732 91.6424 48.6756C94.1539 56.488 87.1638 64.156 79.735 65.3373C74.5394 66.1657 69.3453 63.7764 66.2566 59.7219C64.3332 61.8242 61.2612 63.0964 58.7439 64.323C56.1104 65.6072 53.4131 66.7446 50.682 67.8043C50.9689 69.0389 51.0737 70.322 50.9402 71.6166C50.1064 79.6619 42.2918 84.7599 34.6132 83.1322C31.3964 82.4505 28.482 80.8431 26.3366 78.6444C21.9911 79.9046 17.9513 81.6983 13.9355 83.7894C12.8809 84.3392 11.9023 83.7321 11.5445 82.8942C10.7702 83.6172 9.27226 83.7294 8.6408 82.6201C4.27659 74.9522 -1.59619 65.7853 0.402344 56.5374Z" fill="#8DD9E5"/>
        <path d="M36.1525 72.0431C37.1795 72.312 38.4273 72.0165 38.99 71.0518C39.8463 69.5813 38.6103 67.6384 36.8983 67.8591C36.6693 67.89 36.5213 67.7532 36.4551 67.5757C35.5878 67.8523 34.8661 68.4402 34.5631 69.4225C34.1819 70.6587 34.9573 71.7288 36.1525 72.0431ZM32.122 69.4425C32.4998 66.822 35.4355 64.1721 38.1531 65.2825C38.6526 65.4871 38.9019 65.9945 38.8841 66.4597C40.5884 66.7389 41.9167 68.4256 41.7383 70.4541C41.4874 73.2938 38.9432 74.9393 36.234 74.4955C33.7627 74.0915 31.7441 72.0687 32.122 69.4425Z" fill="#8DD9E5"/>
        <path d="M43.7536 31.0304C47.7102 29.9894 51.5353 28.6344 55.3626 27.1951C55.2666 27.0601 55.181 26.9078 55.1227 26.7234C52.6335 18.9765 45.0682 12.1037 36.5913 12.566C39.2359 18.6064 41.7552 24.7509 43.7536 31.0304ZM34.1407 9.47639C44.8862 9.29865 55.2922 14.8819 58.2225 25.8668C58.3867 26.4802 58.2178 26.9813 57.8898 27.3261C57.9293 27.6361 57.8292 27.9648 57.5216 28.1519C53.0101 30.9115 48.1122 32.8359 43.1173 34.5197C42.2339 34.8177 41.4512 34.1682 41.1476 33.4011C38.3274 26.2663 35.7137 19.0741 32.6802 12.0221C32.1849 10.8715 32.7456 9.49911 34.1407 9.47639Z" fill="#8DD9E5"/>
        <path d="M32.6591 35.3509C33.0517 34.6426 31.3695 31.0745 31.1492 30.3342C29.6794 25.383 28.1 20.4104 26.9813 15.3577C19.7801 22.0114 19.0339 30.2727 20.9016 39.5002C23.4341 38.665 25.976 37.8512 28.4925 36.9665C29.3122 36.6792 32.2226 36.1393 32.6591 35.3509ZM26.5701 12.6048L26.5848 12.6008C26.8785 12.0021 27.7689 11.7054 28.1054 12.4698C29.8262 16.3867 31.1439 20.4732 32.4789 24.5344C33.4936 27.6201 36.127 32.3481 35.8846 35.4992C35.7536 37.2044 35.4173 37.5358 33.9635 38.4071C30.2855 40.6121 24.8185 41.4473 20.7761 42.7783C19.8122 43.095 19.134 42.4736 18.9498 41.7092C18.7348 41.597 18.5319 41.4393 18.3744 41.18C12.6177 31.7187 18.118 18.3097 26.5701 12.6048Z" fill="#8DD9E5"/>
    </svg>
    <symbol id="decorate-cloud" viewBox="0 0 91 62">
        <path d="M87.3826 37.2221C86.011 46.1938 71.2727 50.1967 65.5228 43.2038C64.2975 41.7131 61.8403 43.6509 62.868 45.2648C63.2013 45.7902 63.5768 46.2482 63.9747 46.6736C66.4109 53.6847 55.566 58.5623 50.1073 58.4452C42.8172 58.2913 37.6181 52.6532 36.7999 45.6088C36.7604 45.2757 36.6431 44.9958 36.4824 44.7612L36.5258 44.5528C36.7353 43.0981 34.6957 42.4265 34.2702 43.9281L34.2043 44.1364C33.7247 44.3726 33.3768 44.855 33.3953 45.6088C33.4019 45.8291 33.4335 46.0398 33.448 46.257C30.718 52.8464 24.7797 57.6996 17.1905 56.7835C7.62237 55.6281 3.03987 43.6069 12.9216 38.6718C14.4408 37.9117 13.3749 35.4921 11.7806 35.946C6.07686 37.564 1.05825 31.3207 5.76987 25.7448C8.48801 22.5267 13.3301 22.9211 16.8743 24.0137C17.8809 24.3241 18.3263 22.9474 17.5516 22.3941C17.3961 22.2827 17.2301 22.1982 17.0706 22.0956C17.4027 21.7562 17.4448 21.1832 16.9112 20.8278C9.53416 15.903 12.803 6.57342 21.0392 5.32371C27.1434 4.3967 32.9605 7.365 35.3585 13.0845C35.651 13.7808 36.236 13.8643 36.7446 13.628C37.1148 14.5078 38.6998 14.5326 38.9844 13.441C41.5537 3.58748 54.5976 0.78232 62.6532 5.4724C70.6706 10.1401 71.697 20.4127 66.5953 27.611C65.5716 29.054 67.8563 30.8088 69.0328 29.5037L69.2463 29.2317C69.4887 29.228 69.7285 29.1586 69.9301 28.9892C76.9343 23.0309 88.9624 26.8856 87.3826 37.2221ZM72.2214 24.2209C75.2966 15.8699 71.3083 5.68475 62.839 1.78387C54.1325 -2.22326 40.298 0.477254 37.2268 10.324C34.5047 2.11135 21.665 -0.429993 14.9098 3.80514C9.52889 7.17799 7.31671 16.1523 11.7134 20.3066C6.39705 19.8822 0.988432 23.0002 0.100392 29.1058C-0.662479 34.3584 3.02934 38.5163 7.54201 39.335C2.74211 45.2213 4.13214 54.3546 11.9308 58.0198C20.0984 61.8569 29.9116 58.0436 34.3281 50.6647C36.9514 58.1933 44.7883 63.045 53.0442 61.8077C58.9297 60.9284 67.2462 55.2541 67.1184 48.9247C70.7048 50.5429 75.2267 50.2548 79.0648 49.4035C85.4511 47.9896 90.3353 43.7343 90.9453 36.9101C91.8887 26.3588 80.4272 19.7718 72.2214 24.2209Z" fill="#FDFAF5"/>
    </symbol>
    <symbol id="decorate-girl" width="89" height="115" viewBox="0 0 89 115" fill="none">
        <path d="M82.6737 102.035C81.3714 102.768 79.996 103.326 78.5661 103.753L78.4968 103.611C78.4152 103.499 78.3189 103.397 78.2341 103.288C78.9442 102.167 79.5865 100.999 80.5184 100.037C81.5518 98.9707 83.5004 97.6251 85.0614 98.3372C87.3714 99.3922 83.6056 101.511 82.6737 102.035ZM35.126 93.6456C39.6068 81.9821 43.572 68.8058 43.3992 56.2244C46.2405 56.4854 49.0471 56.3081 51.6163 55.5816C53.2239 55.1277 54.7515 54.4479 56.1822 53.5987L56.2322 53.7143C62.6395 65.1813 70.703 75.2098 80.0476 84.3812C69.111 97.8483 50.4992 101.694 35.126 93.6456ZM38.2148 53.0786C30.728 50.7768 24.4885 45.4252 22.6321 38.4635C36.6421 40.4926 52.504 35.3 60.3424 23.0919C64.1585 27.9811 65.9455 34.2084 64.0107 40.7636C60.6044 52.3031 49.0295 56.403 38.2148 53.0786ZM22.9789 28.5044C23.8613 25.7485 25.325 23.4798 27.179 21.6269C25.5417 25.9408 26.3727 31.3865 29.8464 34.473C30.5176 35.0699 31.4275 34.2416 30.8728 33.5251C27.521 29.1919 27.0048 24.2693 29.6856 19.5262C31.171 18.4821 32.8055 17.6232 34.5368 16.9363C35.3276 22.0705 37.566 27.7708 41.0755 31.4503C41.6152 32.0155 42.5947 31.3559 42.205 30.6479C40.8997 28.2714 39.3513 26.0847 38.2319 23.597C37.1901 21.2797 36.5074 18.8845 35.8776 16.4454C37.5274 15.8852 39.2445 15.4674 40.9807 15.1736C43.2197 16.1607 45.1179 17.3368 46.8299 19.2299C48.4222 20.9912 49.5011 23.0833 50.9107 24.9688C51.2628 25.4399 52.1548 24.9798 51.9445 24.4183C50.5576 20.7338 47.3807 16.5955 43.4989 14.8447C45.5513 14.6365 47.5995 14.5821 49.5656 14.6758C49.6898 14.9109 49.8892 15.1176 50.1836 15.2487C53.5701 16.7563 56.6593 18.9557 59.1168 21.645C50.974 34.8905 36.5407 36.71 22.383 37.3811C21.842 34.6238 21.9752 31.6388 22.9789 28.5044ZM24.161 21.8228C23.3648 22.8471 22.6953 23.9546 22.1258 25.1082C21.7893 24.8664 21.4786 24.5958 21.244 24.1881C20.7735 23.3714 20.619 22.3504 21.1009 21.5009C21.895 20.1014 23.8762 19.868 25.1409 20.6781C24.7955 21.0517 24.465 21.4323 24.161 21.8228ZM3.51143 28.2756C7.04188 27.0733 9.83516 24.4516 11.1168 20.7859C12.0731 18.0508 11.6776 15.2454 14.702 13.3913C16.0004 12.5951 17.7872 12.3606 19.2636 12.4982C23.1296 12.8574 25.6375 15.3872 27.4141 18.5866C26.9937 18.9243 26.5852 19.2683 26.2001 19.6262C26.1535 19.564 26.1084 19.5005 26.0374 19.4471C23.9531 17.9039 20.6483 18.6035 19.5637 21.0413C18.8395 22.6704 19.6108 25.5932 21.3217 26.49C16.2342 30.8745 9.38872 31.269 3.51143 28.2756ZM52.1083 13.4364C51.7042 13.2665 51.2964 13.1059 50.8829 12.9615C50.3648 12.7816 49.9612 12.9342 49.7075 13.2304C49.0147 13.028 48.2948 12.8859 47.5628 12.7718C47.7196 12.722 47.8576 12.6065 47.9232 12.3909C48.3105 11.1121 49.6949 9.79203 51.1416 10.4315C52.3243 10.9551 52.5596 12.3615 52.1083 13.4364ZM57.258 2.97248C58.2481 3.17404 59.1921 3.47384 60.1176 3.76877C61.7586 4.2902 63.3412 4.79461 65.02 4.70016C62.8143 8.87713 60.6086 14.0038 55.401 14.3051C55.0642 14.3247 54.8241 14.4973 54.6794 14.7256C54.3453 14.5326 54.0138 14.3344 53.6712 14.1585C54.6507 12.3049 53.7284 9.64177 51.7724 8.83978C49.5663 7.93559 46.5888 9.68836 46.7543 12.1998C46.7692 12.4212 46.8907 12.5895 47.0485 12.6926C46.588 12.6341 46.1203 12.5973 45.6496 12.5709C45.0211 5.9443 50.7975 1.659 57.258 2.97248ZM50.06 110.501C50.0384 110.759 50.0142 111.017 49.9934 111.276C49.901 111.27 49.8077 111.276 49.7137 111.311C48.2117 111.882 46.7223 112.446 45.1212 112.669C43.8083 112.851 40.8376 113.097 39.8141 112.087C38.9639 111.246 40.5575 110.949 41.2883 110.772C42.0985 110.575 42.9046 110.446 43.7336 110.37C45.6062 110.2 47.447 110.328 49.2896 110.693C49.6004 110.755 49.8608 110.662 50.06 110.501ZM17.658 53.8358C17.344 53.7741 17.0287 53.9477 16.8407 54.2125C15.456 53.9786 13.7924 53.9491 12.9755 52.6502C12.2871 51.5569 12.6374 49.8641 13.7421 49.1699C14.8434 48.4772 16.5162 48.8532 17.3177 49.8345C18.1724 50.8818 18.2375 52.6296 17.658 53.8358ZM78.9258 34.4321C78.8322 33.1641 79.6112 31.9409 80.9175 31.7746C82.2778 31.6025 83.7391 32.579 83.9758 33.9533C84.2018 35.2644 83.5016 36.5014 82.4359 37.1973C80.9557 36.7756 79.0591 36.248 78.9258 34.4321ZM87.2458 97.481C85.8192 95.9958 83.3948 96.248 81.6918 97.0507C79.6375 98.0195 78.1509 99.9435 77.0597 101.922C76.1487 100.946 75.1773 100.011 74.3151 99.0167C73.1664 97.6927 72.0985 96.2725 70.8922 94.9969C75.2554 92.5124 79.2036 89.1278 82.463 84.8925C82.7351 84.5377 82.6794 83.8512 82.3424 83.5476C74.9409 76.8886 68.5261 69.1649 63.0785 60.8267C72.6877 58.189 81.827 48.7854 83.3654 38.8546C85.2207 37.7495 86.3524 35.5045 85.8624 33.3481C85.3344 31.025 82.9129 29.4524 80.5776 29.7576C78.3218 30.0519 76.8031 32.1512 76.8927 34.3763C77 37.0447 79.2605 38.0573 81.5374 38.4388L81.5634 38.5273L81.5509 38.5458C79.5338 43.4713 77.6788 47.8523 73.9093 51.7535C70.5674 55.2111 66.5152 57.4821 62.1973 59.4568C60.7863 57.2374 59.4401 54.9796 58.1644 52.6859C58.1037 52.5757 58.0303 52.4898 57.952 52.4153C62.7376 48.8633 66.0801 43.264 66.7428 37.3707C67.6735 29.0943 63.3115 20.7409 56.5826 15.9383C62.4723 14.8213 64.6732 8.57544 67.6045 3.88063C68.1358 3.02909 67.2013 2.23942 66.3837 2.56029C64.3102 3.37488 62.1082 2.58424 59.947 1.80692C58.7368 1.37095 57.5392 0.93968 56.3846 0.795819C53.7334 0.466095 50.9291 0.896132 48.604 2.2578C45.0452 4.34115 42.9915 8.61771 44.1937 12.5415C38.7212 12.6032 32.8138 14.6481 28.3903 17.8402C27.1995 12.9411 21.4406 9.90507 16.6266 10.7878C13.7864 11.308 11.6142 12.953 10.5679 15.6442C9.6641 17.9701 9.64758 20.3941 8.23065 22.5494C6.51928 25.1521 3.91308 26.5624 0.9085 27.0598C0.117173 27.1907 0.00528517 28.3093 0.630048 28.7103C6.61956 32.5523 14.7929 33.2135 20.6461 29.1669C19.2226 34.8592 20.2032 41.146 23.7524 45.9167C27.7183 51.2486 34.8375 55.0314 41.9522 56.0632C41.5451 58.0918 41.1968 60.1281 40.8604 62.1672C36.6996 62.3205 32.7724 62.2632 28.7431 60.8814C24.7926 59.527 21.9734 57.1531 18.8359 54.6639C20.2362 52.819 20.4771 50.4258 19.0176 48.5088C17.582 46.6231 14.765 46.0344 12.6954 47.1982C10.7872 48.2707 9.95827 50.8081 10.8065 52.8151C11.7989 55.1627 14.704 55.8581 17.0371 55.464C21.5683 62.5243 32.4755 66.1341 40.5457 64.0818C39.9522 67.7223 39.3585 71.3635 38.5163 74.9674C37.013 81.4008 35.0145 87.6828 32.6442 93.8468C32.4776 94.2801 32.709 94.9029 33.1172 95.1271C38.9064 98.3113 45.1478 99.904 51.3239 100.005C50.7979 103.023 50.4555 106.067 50.1798 109.117C50.0855 109.045 49.9678 108.987 49.8204 108.957C47.5556 108.479 35.6052 107.32 37.354 112.434C38.0231 114.392 40.7126 114.775 42.4667 114.861C45.2627 114.999 48.1934 114.186 50.3302 112.351C50.9205 112.793 52.0387 112.547 52.118 111.562C52.4299 107.715 52.6848 103.859 52.6301 99.9991C58.4988 99.8957 64.27 98.439 69.5097 95.7347C70.3895 97.4171 71.6101 98.9569 72.8111 100.407C74.1574 102.031 75.5576 103.832 77.2792 105.069C77.6063 105.305 77.9189 105.29 78.1689 105.151C78.3187 105.26 78.5169 105.312 78.7579 105.261C81.1331 104.749 90.972 101.363 87.2458 97.481Z" fill="#FEB9CC"/>
        <path d="M36.9167 44.0076C36.8363 42.5593 35.1754 41.5802 33.8575 42.2264C33.1929 42.552 32.7406 43.33 32.9588 44.0498C32.8848 44.2295 32.8201 44.4171 32.7667 44.6168C32.5809 45.31 32.9534 45.8499 33.5694 46.1282C35.0043 46.7769 37.0079 45.6615 36.9167 44.0076Z" fill="#FEB9CC"/>
        <path d="M59.4038 34.1258C58.7557 32.9634 56.8378 32.2862 55.836 33.4216C55.7239 33.5485 55.643 33.6918 55.5813 33.84C55.3679 34.0885 55.2013 34.3804 55.1057 34.6975C54.6292 36.2703 56.0935 37.5348 57.5853 37.3669C59.1375 37.1918 60.2097 35.5713 59.4038 34.1258Z" fill="#FEB9CC"/>
        <path d="M49.6208 44.7657C49.7267 44.3712 49.8184 44.0256 49.5419 43.6779C49.3877 43.4833 49.1865 43.3172 48.9716 43.1941C48.0436 42.6593 46.8475 42.9124 46.2816 43.8246C46.0233 44.2418 46.5085 44.8487 46.9625 44.5607C47.2913 44.3518 47.7403 44.3176 48.0904 44.4821C47.9002 45.1062 47.6904 45.7586 47.6767 46.3879C47.6619 47.0545 48.6314 47.4143 48.9775 46.7856C49.3157 46.1707 49.4395 45.4388 49.6208 44.7657Z" fill="#FEB9CC"/>
        <path d="M51.6841 47.2214C50.7116 49.1483 48.4483 50.3463 46.4021 49.1567C45.9376 48.887 45.5524 49.5286 45.9619 49.8501C48.1847 51.5925 52.1419 50.6852 52.9409 47.8002C53.1423 47.0749 52.053 46.4907 51.6841 47.2214Z" fill="#FEB9CC"/>
    </symbol>
    <symbol id="decorate-rocket" width="135" height="68" viewBox="0 0 135 68" fill="none" xmlns="http://www.w3.org/2000/svg">
        <path d="M90.7514 8.73031C94.4994 11.6685 98.0298 14.8312 101.423 18.1571C97.5323 18.8448 93.6422 19.1927 89.6569 19.3016C89.0226 19.3175 88.6178 19.6521 88.395 20.0809C84.3671 16.6156 80.0433 13.538 75.5061 10.8918C80.3962 6.90604 84.4413 3.78325 90.7514 8.73031ZM92.4642 28.881C92.5835 29.0072 92.7083 29.1028 92.8353 29.1824L92.8328 29.1891C91.6744 37.6572 90.5229 45.2385 83.1559 50.3356H83.1477C67.028 53.3309 50.4041 52.1838 35.9393 43.9214C31.8395 41.5806 27.9934 38.8057 24.3834 35.7254C32.2734 27.2466 34.161 14.8763 31.1868 3.92931L31.1443 3.82043C53.5235 1.80363 76.3565 11.8146 92.4642 28.881ZM100.292 30.5632C98.9211 38.1564 97.2124 45.678 95.184 53.1211C93.0307 51.8439 90.8707 50.5785 88.6468 49.4301C93.6142 44.965 95.1825 36.8407 95.8416 30.4172C97.3249 30.4836 98.8082 30.53 100.292 30.5632ZM103.464 36.688C109.917 34.2742 114.262 42.3082 118.659 46.456C116.467 48.5033 114.127 50.5347 111.181 51.3075C107.094 52.3789 103.395 50.6277 100.22 48.1462C100.042 48.0068 99.8364 47.9696 99.6441 47.9961C100.605 44.1829 101.459 40.3472 102.221 36.4875C102.517 36.7624 102.945 36.8832 103.464 36.688ZM123.751 41.1372C125.657 43.9002 127.496 46.4467 129.989 48.4914C125.498 51.3898 122.092 55.916 116.71 57.2331C110.027 58.8688 103.325 56.2492 98.7807 51.3513C98.9678 50.6529 99.1399 49.9532 99.3207 49.2521C101.48 52.8556 105.62 54.6905 109.788 54.4356C114.687 54.1342 118.568 50.6981 121.932 47.4505C122.653 46.7521 122.406 45.6395 121.632 45.1216C115.668 41.1279 111.546 30.6243 102.714 33.9662H102.709L102.751 33.7471L103.039 33.6436C111.846 29.5117 118.705 33.8268 123.751 41.1372ZM4.21457 12.7852C11.615 8.2311 19.4493 5.46813 27.3897 4.26257C27.3738 4.48164 27.3844 4.71001 27.4521 4.95962C30.3258 15.4565 27.8634 24.9085 22.3084 33.9011C15.4307 27.6556 9.43787 20.3173 4.21457 12.7852ZM81.8504 54.1063C83.952 56.216 89.1024 60.0584 89.7362 62.9462C90.2166 65.1197 90.613 64.1451 88.2887 64.5713C86.4474 64.9086 83.8587 64.5713 81.9842 64.5713C78.6663 64.5713 74.7375 65.1489 71.4767 64.5713C68.2184 63.9951 66.4548 62.8586 65.1307 59.6694C64.6031 58.3988 64.404 56.8852 64.0775 55.4951C69.6959 55.6132 75.4765 54.8445 81.3804 53.0335C81.3711 53.3853 81.5064 53.7611 81.8504 54.1063ZM73.4031 9.70221C50.9498 -2.55392 23.6855 -4.26534 0.871219 10.767C0.126929 11.2583 -0.300268 12.3324 0.248995 13.1463C14.6333 34.5039 36.5813 53.9111 62.0305 55.4194C61.7957 59.1144 62.0264 65.0015 65.5406 67.0581C67.8002 68.3805 71.1254 67.8375 73.5782 67.8388C77.4309 67.8402 81.2835 67.8388 85.1367 67.8388C87.9467 67.8388 93.9366 69.0922 93.9833 64.6085C94.0257 60.3558 87.189 54.5073 84.139 52.0483C85.1947 51.7058 86.1514 51.2411 87.0246 50.6781C89.5796 53.0122 92.3979 54.9189 95.3644 56.7033C96.2013 57.2078 97.2917 56.7245 97.5571 55.8111C97.7033 55.3052 97.8308 54.7967 97.9738 54.2922C101.667 58.7799 107.159 61.2733 113.107 61.2268C122.407 61.1551 126.415 53.7199 134.15 50.1749C135.358 49.62 135.206 47.7678 134.15 47.169C127.313 43.3 125.316 34.7389 118.45 30.8381C113.729 28.1561 108.33 28.0419 103.44 29.9286C103.463 29.7879 103.492 29.6498 103.514 29.509C103.672 28.5544 103.124 27.637 102.076 27.6197C99.8726 27.5839 97.6701 27.5374 95.4664 27.5573C95.4716 27.1524 95.3432 26.7328 94.986 26.3557C93.6687 24.9616 92.301 23.622 90.8996 22.3208C95.7277 22.3221 100.446 21.7499 105.181 20.7342C106.413 20.47 106.705 18.8528 105.897 18.015C102.345 14.3306 98.6465 10.8095 94.6969 7.55397C92.3565 5.62613 89.5304 2.70117 86.5785 1.87135C81.6898 0.495842 76.4171 5.52921 73.4031 9.70221Z" fill="#FFD787"/>
        <path d="M50.9441 16.2225C55.527 18.5686 56.945 24.0454 55.6582 28.7442C55.0943 30.8048 53.6919 33.6913 51.4391 34.456C48.8162 35.3456 45.3139 33.666 43.4353 31.9613C40.1049 28.938 39.6457 24.3216 40.5946 20.1645C42.5515 16.1814 46.7318 14.0676 50.9441 16.2225ZM37.3536 19.2165C37.1758 19.8259 37.3919 20.373 37.778 20.7647C32.0399 33.7935 53.4929 46.525 58.7231 31.1328C61.0209 24.3707 58.8925 16.1654 52.0895 12.9789C46.3804 10.3062 39.1669 13.0068 37.3536 19.2165Z" fill="#FFD787"/>
    </symbol>
    <symbol id="decorate-star" width="56" height="58" viewBox="0 0 56 58" fill="none" xmlns="http://www.w3.org/2000/svg">
        <path d="M1.07646 35.1596C6.54555 36.6885 11.9783 38.3604 17.411 40.0147L17.4507 40.173C19.4618 45.842 21.7869 51.4174 23.97 57.0225C24.3755 58.0642 25.818 58.425 26.4494 57.347C28.2776 54.2277 30.162 51.1424 31.9747 48.0143C33.3004 45.7265 35.0525 43.3672 35.5341 40.7406C35.6432 40.7967 35.7633 40.844 35.9043 40.8715C41.5795 41.9692 47.2844 42.3861 53.0587 42.0132C54.11 41.945 54.7238 40.9177 54.2324 39.9695C51.5424 34.7736 48.4084 29.9054 44.297 25.7136C43.7295 25.1351 42.6991 25.8907 43.1564 26.5925C45.875 30.7743 48.5451 34.9716 50.8614 39.3844C46.0789 39.5043 41.3635 39.1435 36.6361 38.224C35.7644 38.0546 35.1451 38.642 34.9666 39.3096C34.7869 39.2766 34.6007 39.2964 34.4475 39.4064C32.086 41.0914 30.8496 44.0579 29.428 46.5283C28.1013 48.8337 26.8108 51.1578 25.5105 53.4775C23.733 48.7886 21.9908 44.0766 20.0469 39.4592C19.8927 39.0929 19.6315 38.8498 19.3318 38.7101C19.3207 38.1789 19.0342 37.6587 18.3808 37.4596C13.7238 36.0429 9.06355 34.6218 4.42865 33.1325C9.04592 29.1552 13.8516 25.5135 18.7565 21.8629C19.2447 21.4988 19.3152 20.9686 19.1444 20.5463C19.205 20.4044 19.2491 20.2493 19.2568 20.0656C19.453 14.6089 19.3494 9.13359 19.3472 3.66924C23.9347 6.87218 28.5068 10.0542 33.0194 13.3726C32.8353 14.3362 33.9219 15.4988 35.1175 14.9312C40.5514 12.3541 46.1251 10.3622 51.9336 8.94991C49.0784 14.1833 45.6612 19.0504 42.9074 24.3354C42.4919 25.1329 43.4815 25.9171 44.1548 25.2957C49.29 20.5518 52.8075 13.8126 55.8335 7.60802C56.3889 6.46962 55.4787 5.26302 54.2269 5.5204C47.399 6.92718 40.8302 9.12041 34.5533 12.1287C29.9625 7.46834 24.4934 3.21389 18.7202 0.156138C17.8816 -0.288225 16.8171 0.259521 16.8149 1.24724C16.8038 7.51452 16.5691 13.8005 16.7377 20.0656C16.7421 20.2229 16.7851 20.3516 16.8303 20.4781C10.8146 23.6205 5.24413 27.9685 0.424096 32.697C-0.372633 33.479 0.0141513 34.8627 1.07646 35.1596Z" fill="#FEB9CC"/>
    </symbol>
</svg>
