<svg xmlns="http://www.w3.org/2000/svg" xmlns:xlink="http://www.w3.org/1999/xlink">
    <symbol id="icon-logo" viewBox="0 0 143 23">
        <path d="M7.80297 18.4C5.3695 18.4 3.48268 17.7952 2.14251 16.5856C0.819973 15.3759 0.11462 13.6722 0.0264507 11.4744C0.0088169 11.0144 0 10.2648 0 9.22556C0 8.16926 0.0088169 7.40259 0.0264507 6.92556C0.11462 4.74482 0.82879 3.04963 2.16896 1.84C3.52677 0.613334 5.40477 0 7.80297 0C9.37238 0 10.739 0.264074 11.9028 0.792223C13.0667 1.30333 13.966 2.01037 14.6008 2.91333C15.2356 3.79926 15.5707 4.80444 15.6059 5.92889V5.98C15.6059 6.1163 15.5442 6.23556 15.4208 6.33778C15.315 6.42296 15.1915 6.46556 15.0505 6.46556H12.5377C12.3261 6.46556 12.1673 6.42296 12.0615 6.33778C11.9557 6.25259 11.8676 6.09074 11.797 5.85222C11.5149 4.77889 11.0476 4.02926 10.3951 3.60333C9.74269 3.16037 8.86982 2.93889 7.77652 2.93889C5.23725 2.93889 3.91471 4.31037 3.80891 7.05333C3.79127 7.51333 3.78246 8.22037 3.78246 9.17445C3.78246 10.1285 3.79127 10.8526 3.80891 11.3467C3.91471 14.0896 5.23725 15.4611 7.77652 15.4611C8.86982 15.4611 9.74269 15.2396 10.3951 14.7967C11.0652 14.3537 11.5325 13.6041 11.797 12.5478C11.8499 12.3093 11.9293 12.1474 12.0351 12.0622C12.1585 11.977 12.3261 11.9344 12.5377 11.9344H15.0505C15.2092 11.9344 15.3414 11.9856 15.4472 12.0878C15.5707 12.19 15.6236 12.3178 15.6059 12.4711C15.5707 13.5956 15.2356 14.6093 14.6008 15.5122C13.966 16.3981 13.0667 17.1052 11.9028 17.6333C10.739 18.1444 9.37238 18.4 7.80297 18.4Z" fill="#122659"/>
        <path d="M19.0867 18.1444C18.9104 18.1444 18.7605 18.0848 18.637 17.9656C18.5136 17.8463 18.4519 17.7015 18.4519 17.5311V0.613333C18.4519 0.425926 18.5136 0.281112 18.637 0.17889C18.7605 0.0596299 18.9104 0 19.0867 0H21.2821C21.4761 0 21.626 0.0596299 21.7318 0.17889C21.8552 0.281112 21.9169 0.425926 21.9169 0.613333V17.5311C21.9169 17.7015 21.8552 17.8463 21.7318 17.9656C21.626 18.0848 21.4761 18.1444 21.2821 18.1444H19.0867Z" fill="#122659"/>
        <path d="M31.3505 18.4C29.3932 18.4 27.8326 17.8548 26.6688 16.7644C25.5226 15.657 24.9142 14.1067 24.8437 12.1133L24.8172 11.4744L24.8437 10.8356C24.9318 8.89333 25.549 7.36852 26.6952 6.26111C27.859 5.1537 29.4108 4.6 31.3505 4.6C33.4313 4.6 35.036 5.21333 36.1646 6.44C37.3108 7.66667 37.8839 9.30222 37.8839 11.3467V11.8833C37.8839 12.0537 37.8222 12.1985 37.6987 12.3178C37.5753 12.437 37.4166 12.4967 37.2226 12.4967H28.441V12.7011C28.4762 13.6381 28.7407 14.4304 29.2345 15.0778C29.7459 15.7081 30.4424 16.0233 31.3241 16.0233C32.3645 16.0233 33.2021 15.6315 33.8369 14.8478C33.9956 14.6604 34.1191 14.5411 34.2072 14.49C34.313 14.4389 34.4629 14.4133 34.6569 14.4133H36.9317C37.0904 14.4133 37.2226 14.4644 37.3284 14.5667C37.4519 14.6519 37.5136 14.7626 37.5136 14.8989C37.5136 15.3078 37.2579 15.7933 36.7465 16.3556C36.2528 16.9007 35.5386 17.3778 34.604 17.7867C33.6694 18.1956 32.5849 18.4 31.3505 18.4ZM34.2866 10.35V10.2733C34.2866 9.26815 34.0221 8.45889 33.4931 7.84556C32.9817 7.23222 32.2675 6.92556 31.3505 6.92556C30.4336 6.92556 29.7194 7.23222 29.208 7.84556C28.6967 8.45889 28.441 9.26815 28.441 10.2733V10.35H34.2866Z" fill="#122659"/>
        <path d="M45.0677 18.1444C44.8032 18.1444 44.6004 18.0933 44.4594 17.9911C44.3183 17.8719 44.2037 17.71 44.1155 17.5056L39.1692 5.64778L39.1163 5.41778C39.1163 5.26444 39.1692 5.13667 39.275 5.03445C39.3985 4.91519 39.5395 4.85556 39.6982 4.85556H41.8408C42.1758 4.85556 42.405 5.01741 42.5285 5.34111L46.0464 14.3111L49.5644 5.34111C49.6173 5.22185 49.6966 5.11111 49.8024 5.00889C49.9259 4.90667 50.0758 4.85556 50.2521 4.85556H52.4211C52.5621 4.85556 52.6856 4.91519 52.7914 5.03445C52.9148 5.13667 52.9765 5.26444 52.9765 5.41778C52.9765 5.52 52.9677 5.59667 52.9501 5.64778L47.9773 17.5056C47.8892 17.71 47.7745 17.8719 47.6335 17.9911C47.4924 18.0933 47.2896 18.1444 47.0251 18.1444H45.0677Z" fill="#122659"/>
        <path d="M60.8235 18.4C58.8661 18.4 57.3056 17.8548 56.1417 16.7644C54.9955 15.657 54.3872 14.1067 54.3166 12.1133L54.2902 11.4744L54.3166 10.8356C54.4048 8.89333 55.022 7.36852 56.1682 6.26111C57.332 5.1537 58.8838 4.6 60.8235 4.6C62.9043 4.6 64.509 5.21333 65.6375 6.44C66.7837 7.66667 67.3568 9.30222 67.3568 11.3467V11.8833C67.3568 12.0537 67.2951 12.1985 67.1717 12.3178C67.0482 12.437 66.8895 12.4967 66.6956 12.4967H57.9139V12.7011C57.9492 13.6381 58.2137 14.4304 58.7074 15.0778C59.2188 15.7081 59.9154 16.0233 60.7971 16.0233C61.8375 16.0233 62.6751 15.6315 63.3099 14.8478C63.4686 14.6604 63.592 14.5411 63.6802 14.49C63.786 14.4389 63.9359 14.4133 64.1299 14.4133H66.4046C66.5633 14.4133 66.6956 14.4644 66.8014 14.5667C66.9248 14.6519 66.9865 14.7626 66.9865 14.8989C66.9865 15.3078 66.7308 15.7933 66.2195 16.3556C65.7257 16.9007 65.0115 17.3778 64.077 17.7867C63.1424 18.1956 62.0579 18.4 60.8235 18.4ZM63.7595 10.35V10.2733C63.7595 9.26815 63.495 8.45889 62.966 7.84556C62.4546 7.23222 61.7405 6.92556 60.8235 6.92556C59.9065 6.92556 59.1924 7.23222 58.681 7.84556C58.1696 8.45889 57.9139 9.26815 57.9139 10.2733V10.35H63.7595Z" fill="#122659"/>
        <path d="M70.7994 18.1444C70.623 18.1444 70.4731 18.0848 70.3497 17.9656C70.2263 17.8463 70.1645 17.7015 70.1645 17.5311V5.49444C70.1645 5.32407 70.2263 5.17926 70.3497 5.06C70.4731 4.9237 70.623 4.85556 70.7994 4.85556H72.9419C73.1358 4.85556 73.2945 4.91519 73.418 5.03445C73.5414 5.1537 73.6031 5.30704 73.6031 5.49444V6.54222C74.0264 5.99704 74.5554 5.57963 75.1902 5.29C75.8426 5.00037 76.5833 4.85556 77.412 4.85556H78.4965C78.6905 4.85556 78.8404 4.91519 78.9462 5.03445C79.0696 5.13667 79.1314 5.28148 79.1314 5.46889V7.30889C79.1314 7.47926 79.0696 7.62407 78.9462 7.74333C78.8404 7.86259 78.6905 7.92222 78.4965 7.92222H76.4334C75.6046 7.92222 74.9521 8.15222 74.476 8.61222C73.9999 9.07222 73.7618 9.70259 73.7618 10.5033V17.5311C73.7618 17.7015 73.7001 17.8463 73.5767 17.9656C73.4533 18.0848 73.2946 18.1444 73.1006 18.1444H70.7994Z" fill="#122659"/>
        <path d="M82.1465 18.1444C81.9702 18.1444 81.8203 18.0848 81.6969 17.9656C81.5734 17.8463 81.5117 17.7015 81.5117 17.5311V0.894445C81.5117 0.707037 81.5646 0.553704 81.6704 0.434445C81.7939 0.315185 81.9526 0.255555 82.1465 0.255555H89.8172C91.8804 0.255555 93.4146 0.698519 94.4197 1.58445C95.4424 2.45333 95.9538 3.64593 95.9538 5.16222C95.9538 6.04815 95.7246 6.8063 95.2661 7.43667C94.8253 8.05 94.3051 8.49296 93.7055 8.76556C94.4461 9.08926 95.0633 9.61741 95.5571 10.35C96.0684 11.0826 96.3241 11.9174 96.3241 12.8544C96.3241 14.4389 95.7687 15.7167 94.6577 16.6878C93.5644 17.6589 92.0215 18.1444 90.0289 18.1444H82.1465ZM89.3411 7.59C90.2581 7.59 90.9546 7.37704 91.4307 6.95111C91.9069 6.52519 92.1449 5.95444 92.1449 5.23889C92.1449 4.5063 91.9069 3.94407 91.4307 3.55222C90.9546 3.14333 90.2581 2.93889 89.3411 2.93889H85.1884V7.59H89.3411ZM89.6056 15.4356C90.5226 15.4356 91.2368 15.197 91.7482 14.72C92.2595 14.2259 92.5152 13.6041 92.5152 12.8544C92.5152 12.0878 92.2595 11.4659 91.7482 10.9889C91.2368 10.4948 90.5226 10.2478 89.6056 10.2478H85.1884V15.4356H89.6056Z" fill="#122659"/>
        <path d="M103.322 18.4C102.422 18.4 101.593 18.2296 100.835 17.8889C100.095 17.5311 99.5039 17.0541 99.063 16.4578C98.6398 15.8615 98.4282 15.2056 98.4282 14.49C98.4282 13.3315 98.9131 12.3944 99.883 11.6789C100.853 10.9633 102.184 10.4778 103.877 10.2222L107.501 9.71111V9.17445C107.501 8.42482 107.307 7.86259 106.919 7.48778C106.531 7.11296 105.905 6.92556 105.041 6.92556C104.459 6.92556 103.983 7.0363 103.613 7.25778C103.26 7.46222 102.978 7.66667 102.766 7.87111C102.555 8.09259 102.413 8.23741 102.343 8.30556C102.272 8.51 102.14 8.61222 101.946 8.61222H99.9095C99.7507 8.61222 99.6097 8.56111 99.4862 8.45889C99.3804 8.35667 99.3275 8.22037 99.3275 8.05C99.3452 7.62407 99.5568 7.13852 99.9623 6.59333C100.386 6.04815 101.029 5.57963 101.893 5.18778C102.757 4.79593 103.815 4.6 105.067 4.6C107.148 4.6 108.665 5.05148 109.617 5.95444C110.569 6.85741 111.045 8.04148 111.045 9.50667V17.5311C111.045 17.7015 110.983 17.8463 110.86 17.9656C110.754 18.0848 110.604 18.1444 110.41 18.1444H108.268C108.092 18.1444 107.942 18.0848 107.818 17.9656C107.695 17.8463 107.633 17.7015 107.633 17.5311V16.5344C107.245 17.0796 106.69 17.5311 105.967 17.8889C105.261 18.2296 104.38 18.4 103.322 18.4ZM104.221 15.9722C105.191 15.9722 105.984 15.6656 106.601 15.0522C107.219 14.4389 107.527 13.5444 107.527 12.3689V11.8322L104.882 12.2411C103.859 12.3944 103.084 12.6415 102.555 12.9822C102.043 13.323 101.787 13.7404 101.787 14.2344C101.787 14.7796 102.026 15.2056 102.502 15.5122C102.978 15.8189 103.551 15.9722 104.221 15.9722Z" fill="#122659"/>
        <path d="M122.056 18.4C120.24 18.4 118.829 17.7952 117.824 16.5856V17.5311C117.824 17.7015 117.763 17.8463 117.639 17.9656C117.533 18.0848 117.383 18.1444 117.189 18.1444H115.1C114.923 18.1444 114.774 18.0848 114.65 17.9656C114.527 17.8463 114.465 17.7015 114.465 17.5311V0.613333C114.465 0.425926 114.527 0.281112 114.65 0.17889C114.774 0.0596299 114.923 0 115.1 0H117.348C117.542 0 117.692 0.0596299 117.798 0.17889C117.921 0.281112 117.983 0.425926 117.983 0.613333V6.28667C118.988 5.16222 120.346 4.6 122.056 4.6C123.837 4.6 125.204 5.16222 126.156 6.28667C127.108 7.41111 127.62 8.86778 127.69 10.6567C127.708 10.8611 127.717 11.1337 127.717 11.4744C127.717 11.8322 127.708 12.1133 127.69 12.3178C127.62 14.1578 127.108 15.6315 126.156 16.7389C125.204 17.8463 123.837 18.4 122.056 18.4ZM121.078 15.6656C122.982 15.6656 123.996 14.5326 124.12 12.2667C124.137 12.0963 124.146 11.8407 124.146 11.5C124.146 11.1593 124.137 10.9037 124.12 10.7333C123.996 8.46741 122.982 7.33444 121.078 7.33444C120.09 7.33444 119.332 7.64111 118.803 8.25445C118.292 8.85074 118.018 9.57481 117.983 10.4267L117.957 11.3978L117.983 12.3944C118.036 13.3144 118.309 14.0896 118.803 14.72C119.297 15.3504 120.055 15.6656 121.078 15.6656Z" fill="#122659"/>
        <path d="M132.578 23C132.437 23 132.314 22.9489 132.208 22.8467C132.102 22.7444 132.049 22.6252 132.049 22.4889C132.049 22.3356 132.085 22.1993 132.155 22.08L134.218 17.3522L129.14 5.77556C129.069 5.62222 129.034 5.50296 129.034 5.41778C129.052 5.26444 129.113 5.13667 129.219 5.03445C129.325 4.91519 129.457 4.85556 129.616 4.85556H131.758C132.093 4.85556 132.332 5.01741 132.473 5.34111L135.991 13.6978L139.614 5.34111C139.755 5.01741 139.993 4.85556 140.328 4.85556H142.445C142.586 4.85556 142.709 4.90667 142.815 5.00889C142.938 5.11111 143 5.23037 143 5.36667C143 5.48593 142.965 5.62222 142.894 5.77556L135.409 22.5144C135.25 22.8382 135.003 23 134.668 23H132.578Z" fill="#122659"/>
    </symbol>
    <symbol id="icon-phone" viewBox="0 0 15 15">
        <path d="M11.404 9.92279C10.9139 9.43898 10.3021 9.43898 9.8152 9.92279C9.44375 10.2911 9.0723 10.6594 8.7071 11.034C8.60721 11.137 8.52294 11.1588 8.4012 11.0902C8.16085 10.9591 7.9049 10.853 7.67391 10.7094C6.59703 10.032 5.69494 9.16118 4.89587 8.18108C4.49945 7.69414 4.14673 7.17288 3.90014 6.58606C3.8502 6.46745 3.85956 6.38942 3.95632 6.29266C4.32777 5.9337 4.68985 5.56538 5.05506 5.19706C5.56385 4.68516 5.56385 4.08586 5.05194 3.57083C4.76165 3.27743 4.47135 2.99026 4.18106 2.69685C3.88141 2.3972 3.58488 2.09443 3.2821 1.7979C2.79204 1.32033 2.18025 1.32033 1.69331 1.80102C1.31874 2.16934 0.959777 2.54703 0.578966 2.9091C0.226247 3.24309 0.0483275 3.65199 0.0108707 4.12956C-0.048436 4.90677 0.14197 5.64029 0.41041 6.35508C0.959777 7.83461 1.79631 9.1487 2.81077 10.3535C4.18106 11.9829 5.81668 13.272 7.7301 14.2022C8.59161 14.6204 9.48433 14.9419 10.4551 14.995C11.1231 15.0325 11.7036 14.8639 12.1687 14.3426C12.4871 13.9868 12.8461 13.6622 13.1832 13.3219C13.6826 12.8163 13.6857 12.2045 13.1894 11.7051C12.5964 11.1089 12.0002 10.5159 11.404 9.92279Z" fill="#122659"/>
        <path d="M10.8075 7.43508L11.9593 7.23843C11.7783 6.18029 11.2789 5.22203 10.5204 4.46042C9.71817 3.65823 8.70371 3.15257 7.58625 2.9965L7.42394 4.15453C8.28857 4.27626 9.07516 4.66643 9.69632 5.28758C10.2831 5.8744 10.6671 6.61728 10.8075 7.43508Z" fill="#122659"/>
        <path d="M12.609 2.42842C11.2793 1.09872 9.59684 0.259073 7.73961 0L7.57729 1.15802C9.1817 1.38276 10.6363 2.11004 11.785 3.25558C12.8743 4.34493 13.5891 5.72145 13.8482 7.23531L15 7.03866C14.6972 5.28446 13.8701 3.69257 12.609 2.42842Z" fill="#122659"/>
    </symbol>
    <svg id="decorate-car" viewBox="0 0 106 84">
        <path d="M75.4729 53.8567C76.8017 54.9324 78.7536 54.4046 79.6636 53.0228C80.681 51.4766 79.7815 49.1313 77.8394 48.9269C77.6569 48.9081 77.5037 48.8253 77.3883 48.7077C76.4746 48.6957 75.6074 48.9616 74.9264 49.7541C73.8677 50.9889 74.2646 52.8785 75.4729 53.8567ZM72.7162 49.4694C73.8526 47.1335 77.2356 45.7022 79.5421 47.1963C79.7757 47.3473 79.9024 47.5598 79.953 47.7829C81.6866 48.5727 82.7456 50.7189 82.2278 52.7275C81.492 55.5859 78.2274 57.5129 75.441 56.2888C72.9545 55.197 71.4897 51.9925 72.7162 49.4694Z" fill="#8DD9E5"/>
        <path d="M5.04958 66.9503C6.7424 71.9413 9.8143 76.3153 11.8596 81.1544C11.965 81.0515 12.0838 80.9539 12.2307 80.8699C16.0195 78.6821 20.1501 77.1651 24.3875 76.1149C22.6079 73.1148 22.1006 69.4602 23.6746 65.627C25.9121 60.1788 34.7921 52.0753 40.43 57.8617L40.6402 58.1691C44.5472 58.7812 47.9192 61.5046 49.6845 65.0408C52.6591 63.9822 55.5753 62.8034 58.443 61.4807C60.6922 60.4409 62.932 58.9388 65.3523 58.3736C64.5048 56.9517 63.8895 55.3788 63.6042 53.6923C62.3563 46.321 67.772 38.8574 75.2174 38.0984C75.7102 38.049 76.0768 38.2173 76.3318 38.494C81.2109 38.1732 86.3425 40.6081 89.4136 44.5329C93.8436 42.9854 98.4098 41.7213 102.927 40.4704C103.187 40.3969 103.407 40.4237 103.606 40.4838C94.9289 28.613 82.1178 12.3389 66.4088 24.1135C65.1561 25.0529 63.8968 23.2462 64.6284 22.1116C57.1752 10.0163 44.821 0.315671 29.773 4.4116C11.3776 9.41758 7.64888 31.0304 16.2131 46.0243C16.5776 46.6644 16.5402 47.2631 16.2758 47.7308C16.5228 48.5153 16.1824 49.4654 15.1491 49.3505C4.57964 48.1678 2.34081 58.9616 5.04958 66.9503ZM38.7111 80.0957C43.7394 79.5946 48.0084 75.0515 47.6845 69.8407C47.3398 64.2855 42.5358 61.0678 37.6009 59.9637C37.3845 59.9141 37.239 59.8113 37.1284 59.6872C31.7194 58.6475 26.1163 65.1181 25.9508 70.179C25.7452 76.4933 33.0932 80.6533 38.7111 80.0957ZM78.4136 62.4386C84.2962 61.9244 90.0535 56.3797 88.5672 50.2298C87.2812 44.9098 81.456 41.3591 76.0319 40.997C75.9115 41.0798 75.7915 41.164 75.6388 41.2134C70.8108 42.7369 66.4651 46.4319 66.5507 51.9457C66.6456 58.0729 72.4889 62.9585 78.4136 62.4386ZM0.402344 56.5374C1.63992 50.8031 6.36592 46.0537 12.0078 46.166C2.76936 30.7658 8.7329 8.30708 26.0949 1.84714C42.1927 -4.1424 59.8917 5.06508 66.4063 20.3677C71.7907 16.0299 79.8128 16.1434 86.0577 18.7079C95.2303 22.4738 101.203 31.4033 105.835 39.7328C106.443 40.8286 105.238 41.6892 104.342 41.2442C104.511 41.8201 104.302 42.5298 103.57 42.8024C99.4425 44.3485 95.2725 45.9014 91.0548 47.2097C91.2764 47.6854 91.4802 48.1732 91.6424 48.6756C94.1539 56.488 87.1638 64.156 79.735 65.3373C74.5394 66.1657 69.3453 63.7764 66.2566 59.7219C64.3332 61.8242 61.2612 63.0964 58.7439 64.323C56.1104 65.6072 53.4131 66.7446 50.682 67.8043C50.9689 69.0389 51.0737 70.322 50.9402 71.6166C50.1064 79.6619 42.2918 84.7599 34.6132 83.1322C31.3964 82.4505 28.482 80.8431 26.3366 78.6444C21.9911 79.9046 17.9513 81.6983 13.9355 83.7894C12.8809 84.3392 11.9023 83.7321 11.5445 82.8942C10.7702 83.6172 9.27226 83.7294 8.6408 82.6201C4.27659 74.9522 -1.59619 65.7853 0.402344 56.5374Z" fill="#8DD9E5"/>
        <path d="M36.1525 72.0431C37.1795 72.312 38.4273 72.0165 38.99 71.0518C39.8463 69.5813 38.6103 67.6384 36.8983 67.8591C36.6693 67.89 36.5213 67.7532 36.4551 67.5757C35.5878 67.8523 34.8661 68.4402 34.5631 69.4225C34.1819 70.6587 34.9573 71.7288 36.1525 72.0431ZM32.122 69.4425C32.4998 66.822 35.4355 64.1721 38.1531 65.2825C38.6526 65.4871 38.9019 65.9945 38.8841 66.4597C40.5884 66.7389 41.9167 68.4256 41.7383 70.4541C41.4874 73.2938 38.9432 74.9393 36.234 74.4955C33.7627 74.0915 31.7441 72.0687 32.122 69.4425Z" fill="#8DD9E5"/>
        <path d="M43.7536 31.0304C47.7102 29.9894 51.5353 28.6344 55.3626 27.1951C55.2666 27.0601 55.181 26.9078 55.1227 26.7234C52.6335 18.9765 45.0682 12.1037 36.5913 12.566C39.2359 18.6064 41.7552 24.7509 43.7536 31.0304ZM34.1407 9.47639C44.8862 9.29865 55.2922 14.8819 58.2225 25.8668C58.3867 26.4802 58.2178 26.9813 57.8898 27.3261C57.9293 27.6361 57.8292 27.9648 57.5216 28.1519C53.0101 30.9115 48.1122 32.8359 43.1173 34.5197C42.2339 34.8177 41.4512 34.1682 41.1476 33.4011C38.3274 26.2663 35.7137 19.0741 32.6802 12.0221C32.1849 10.8715 32.7456 9.49911 34.1407 9.47639Z" fill="#8DD9E5"/>
        <path d="M32.6591 35.3509C33.0517 34.6426 31.3695 31.0745 31.1492 30.3342C29.6794 25.383 28.1 20.4104 26.9813 15.3577C19.7801 22.0114 19.0339 30.2727 20.9016 39.5002C23.4341 38.665 25.976 37.8512 28.4925 36.9665C29.3122 36.6792 32.2226 36.1393 32.6591 35.3509ZM26.5701 12.6048L26.5848 12.6008C26.8785 12.0021 27.7689 11.7054 28.1054 12.4698C29.8262 16.3867 31.1439 20.4732 32.4789 24.5344C33.4936 27.6201 36.127 32.3481 35.8846 35.4992C35.7536 37.2044 35.4173 37.5358 33.9635 38.4071C30.2855 40.6121 24.8185 41.4473 20.7761 42.7783C19.8122 43.095 19.134 42.4736 18.9498 41.7092C18.7348 41.597 18.5319 41.4393 18.3744 41.18C12.6177 31.7187 18.118 18.3097 26.5701 12.6048Z" fill="#8DD9E5"/>
    </svg>
    <symbol id="decorate-cloud" viewBox="0 0 91 62">
        <path d="M87.3826 37.2221C86.011 46.1938 71.2727 50.1967 65.5228 43.2038C64.2975 41.7131 61.8403 43.6509 62.868 45.2648C63.2013 45.7902 63.5768 46.2482 63.9747 46.6736C66.4109 53.6847 55.566 58.5623 50.1073 58.4452C42.8172 58.2913 37.6181 52.6532 36.7999 45.6088C36.7604 45.2757 36.6431 44.9958 36.4824 44.7612L36.5258 44.5528C36.7353 43.0981 34.6957 42.4265 34.2702 43.9281L34.2043 44.1364C33.7247 44.3726 33.3768 44.855 33.3953 45.6088C33.4019 45.8291 33.4335 46.0398 33.448 46.257C30.718 52.8464 24.7797 57.6996 17.1905 56.7835C7.62237 55.6281 3.03987 43.6069 12.9216 38.6718C14.4408 37.9117 13.3749 35.4921 11.7806 35.946C6.07686 37.564 1.05825 31.3207 5.76987 25.7448C8.48801 22.5267 13.3301 22.9211 16.8743 24.0137C17.8809 24.3241 18.3263 22.9474 17.5516 22.3941C17.3961 22.2827 17.2301 22.1982 17.0706 22.0956C17.4027 21.7562 17.4448 21.1832 16.9112 20.8278C9.53416 15.903 12.803 6.57342 21.0392 5.32371C27.1434 4.3967 32.9605 7.365 35.3585 13.0845C35.651 13.7808 36.236 13.8643 36.7446 13.628C37.1148 14.5078 38.6998 14.5326 38.9844 13.441C41.5537 3.58748 54.5976 0.78232 62.6532 5.4724C70.6706 10.1401 71.697 20.4127 66.5953 27.611C65.5716 29.054 67.8563 30.8088 69.0328 29.5037L69.2463 29.2317C69.4887 29.228 69.7285 29.1586 69.9301 28.9892C76.9343 23.0309 88.9624 26.8856 87.3826 37.2221ZM72.2214 24.2209C75.2966 15.8699 71.3083 5.68475 62.839 1.78387C54.1325 -2.22326 40.298 0.477254 37.2268 10.324C34.5047 2.11135 21.665 -0.429993 14.9098 3.80514C9.52889 7.17799 7.31671 16.1523 11.7134 20.3066C6.39705 19.8822 0.988432 23.0002 0.100392 29.1058C-0.662479 34.3584 3.02934 38.5163 7.54201 39.335C2.74211 45.2213 4.13214 54.3546 11.9308 58.0198C20.0984 61.8569 29.9116 58.0436 34.3281 50.6647C36.9514 58.1933 44.7883 63.045 53.0442 61.8077C58.9297 60.9284 67.2462 55.2541 67.1184 48.9247C70.7048 50.5429 75.2267 50.2548 79.0648 49.4035C85.4511 47.9896 90.3353 43.7343 90.9453 36.9101C91.8887 26.3588 80.4272 19.7718 72.2214 24.2209Z" fill="#FDFAF5"/>
    </symbol>
</svg>
