<svg xmlns="http://www.w3.org/2000/svg" xmlns:xlink="http://www.w3.org/1999/xlink">
    <symbol id="icon-logo" viewBox="0 0 143 23">
        <path d="M7.80297 18.4C5.3695 18.4 3.48268 17.7952 2.14251 16.5856C0.819973 15.3759 0.11462 13.6722 0.0264507 11.4744C0.0088169 11.0144 0 10.2648 0 9.22556C0 8.16926 0.0088169 7.40259 0.0264507 6.92556C0.11462 4.74482 0.82879 3.04963 2.16896 1.84C3.52677 0.613334 5.40477 0 7.80297 0C9.37238 0 10.739 0.264074 11.9028 0.792223C13.0667 1.30333 13.966 2.01037 14.6008 2.91333C15.2356 3.79926 15.5707 4.80444 15.6059 5.92889V5.98C15.6059 6.1163 15.5442 6.23556 15.4208 6.33778C15.315 6.42296 15.1915 6.46556 15.0505 6.46556H12.5377C12.3261 6.46556 12.1673 6.42296 12.0615 6.33778C11.9557 6.25259 11.8676 6.09074 11.797 5.85222C11.5149 4.77889 11.0476 4.02926 10.3951 3.60333C9.74269 3.16037 8.86982 2.93889 7.77652 2.93889C5.23725 2.93889 3.91471 4.31037 3.80891 7.05333C3.79127 7.51333 3.78246 8.22037 3.78246 9.17445C3.78246 10.1285 3.79127 10.8526 3.80891 11.3467C3.91471 14.0896 5.23725 15.4611 7.77652 15.4611C8.86982 15.4611 9.74269 15.2396 10.3951 14.7967C11.0652 14.3537 11.5325 13.6041 11.797 12.5478C11.8499 12.3093 11.9293 12.1474 12.0351 12.0622C12.1585 11.977 12.3261 11.9344 12.5377 11.9344H15.0505C15.2092 11.9344 15.3414 11.9856 15.4472 12.0878C15.5707 12.19 15.6236 12.3178 15.6059 12.4711C15.5707 13.5956 15.2356 14.6093 14.6008 15.5122C13.966 16.3981 13.0667 17.1052 11.9028 17.6333C10.739 18.1444 9.37238 18.4 7.80297 18.4Z" fill="#122659"/>
        <path d="M19.0867 18.1444C18.9104 18.1444 18.7605 18.0848 18.637 17.9656C18.5136 17.8463 18.4519 17.7015 18.4519 17.5311V0.613333C18.4519 0.425926 18.5136 0.281112 18.637 0.17889C18.7605 0.0596299 18.9104 0 19.0867 0H21.2821C21.4761 0 21.626 0.0596299 21.7318 0.17889C21.8552 0.281112 21.9169 0.425926 21.9169 0.613333V17.5311C21.9169 17.7015 21.8552 17.8463 21.7318 17.9656C21.626 18.0848 21.4761 18.1444 21.2821 18.1444H19.0867Z" fill="#122659"/>
        <path d="M31.3505 18.4C29.3932 18.4 27.8326 17.8548 26.6688 16.7644C25.5226 15.657 24.9142 14.1067 24.8437 12.1133L24.8172 11.4744L24.8437 10.8356C24.9318 8.89333 25.549 7.36852 26.6952 6.26111C27.859 5.1537 29.4108 4.6 31.3505 4.6C33.4313 4.6 35.036 5.21333 36.1646 6.44C37.3108 7.66667 37.8839 9.30222 37.8839 11.3467V11.8833C37.8839 12.0537 37.8222 12.1985 37.6987 12.3178C37.5753 12.437 37.4166 12.4967 37.2226 12.4967H28.441V12.7011C28.4762 13.6381 28.7407 14.4304 29.2345 15.0778C29.7459 15.7081 30.4424 16.0233 31.3241 16.0233C32.3645 16.0233 33.2021 15.6315 33.8369 14.8478C33.9956 14.6604 34.1191 14.5411 34.2072 14.49C34.313 14.4389 34.4629 14.4133 34.6569 14.4133H36.9317C37.0904 14.4133 37.2226 14.4644 37.3284 14.5667C37.4519 14.6519 37.5136 14.7626 37.5136 14.8989C37.5136 15.3078 37.2579 15.7933 36.7465 16.3556C36.2528 16.9007 35.5386 17.3778 34.604 17.7867C33.6694 18.1956 32.5849 18.4 31.3505 18.4ZM34.2866 10.35V10.2733C34.2866 9.26815 34.0221 8.45889 33.4931 7.84556C32.9817 7.23222 32.2675 6.92556 31.3505 6.92556C30.4336 6.92556 29.7194 7.23222 29.208 7.84556C28.6967 8.45889 28.441 9.26815 28.441 10.2733V10.35H34.2866Z" fill="#122659"/>
        <path d="M45.0677 18.1444C44.8032 18.1444 44.6004 18.0933 44.4594 17.9911C44.3183 17.8719 44.2037 17.71 44.1155 17.5056L39.1692 5.64778L39.1163 5.41778C39.1163 5.26444 39.1692 5.13667 39.275 5.03445C39.3985 4.91519 39.5395 4.85556 39.6982 4.85556H41.8408C42.1758 4.85556 42.405 5.01741 42.5285 5.34111L46.0464 14.3111L49.5644 5.34111C49.6173 5.22185 49.6966 5.11111 49.8024 5.00889C49.9259 4.90667 50.0758 4.85556 50.2521 4.85556H52.4211C52.5621 4.85556 52.6856 4.91519 52.7914 5.03445C52.9148 5.13667 52.9765 5.26444 52.9765 5.41778C52.9765 5.52 52.9677 5.59667 52.9501 5.64778L47.9773 17.5056C47.8892 17.71 47.7745 17.8719 47.6335 17.9911C47.4924 18.0933 47.2896 18.1444 47.0251 18.1444H45.0677Z" fill="#122659"/>
        <path d="M60.8235 18.4C58.8661 18.4 57.3056 17.8548 56.1417 16.7644C54.9955 15.657 54.3872 14.1067 54.3166 12.1133L54.2902 11.4744L54.3166 10.8356C54.4048 8.89333 55.022 7.36852 56.1682 6.26111C57.332 5.1537 58.8838 4.6 60.8235 4.6C62.9043 4.6 64.509 5.21333 65.6375 6.44C66.7837 7.66667 67.3568 9.30222 67.3568 11.3467V11.8833C67.3568 12.0537 67.2951 12.1985 67.1717 12.3178C67.0482 12.437 66.8895 12.4967 66.6956 12.4967H57.9139V12.7011C57.9492 13.6381 58.2137 14.4304 58.7074 15.0778C59.2188 15.7081 59.9154 16.0233 60.7971 16.0233C61.8375 16.0233 62.6751 15.6315 63.3099 14.8478C63.4686 14.6604 63.592 14.5411 63.6802 14.49C63.786 14.4389 63.9359 14.4133 64.1299 14.4133H66.4046C66.5633 14.4133 66.6956 14.4644 66.8014 14.5667C66.9248 14.6519 66.9865 14.7626 66.9865 14.8989C66.9865 15.3078 66.7308 15.7933 66.2195 16.3556C65.7257 16.9007 65.0115 17.3778 64.077 17.7867C63.1424 18.1956 62.0579 18.4 60.8235 18.4ZM63.7595 10.35V10.2733C63.7595 9.26815 63.495 8.45889 62.966 7.84556C62.4546 7.23222 61.7405 6.92556 60.8235 6.92556C59.9065 6.92556 59.1924 7.23222 58.681 7.84556C58.1696 8.45889 57.9139 9.26815 57.9139 10.2733V10.35H63.7595Z" fill="#122659"/>
        <path d="M70.7994 18.1444C70.623 18.1444 70.4731 18.0848 70.3497 17.9656C70.2263 17.8463 70.1645 17.7015 70.1645 17.5311V5.49444C70.1645 5.32407 70.2263 5.17926 70.3497 5.06C70.4731 4.9237 70.623 4.85556 70.7994 4.85556H72.9419C73.1358 4.85556 73.2945 4.91519 73.418 5.03445C73.5414 5.1537 73.6031 5.30704 73.6031 5.49444V6.54222C74.0264 5.99704 74.5554 5.57963 75.1902 5.29C75.8426 5.00037 76.5833 4.85556 77.412 4.85556H78.4965C78.6905 4.85556 78.8404 4.91519 78.9462 5.03445C79.0696 5.13667 79.1314 5.28148 79.1314 5.46889V7.30889C79.1314 7.47926 79.0696 7.62407 78.9462 7.74333C78.8404 7.86259 78.6905 7.92222 78.4965 7.92222H76.4334C75.6046 7.92222 74.9521 8.15222 74.476 8.61222C73.9999 9.07222 73.7618 9.70259 73.7618 10.5033V17.5311C73.7618 17.7015 73.7001 17.8463 73.5767 17.9656C73.4533 18.0848 73.2946 18.1444 73.1006 18.1444H70.7994Z" fill="#122659"/>
        <path d="M82.1465 18.1444C81.9702 18.1444 81.8203 18.0848 81.6969 17.9656C81.5734 17.8463 81.5117 17.7015 81.5117 17.5311V0.894445C81.5117 0.707037 81.5646 0.553704 81.6704 0.434445C81.7939 0.315185 81.9526 0.255555 82.1465 0.255555H89.8172C91.8804 0.255555 93.4146 0.698519 94.4197 1.58445C95.4424 2.45333 95.9538 3.64593 95.9538 5.16222C95.9538 6.04815 95.7246 6.8063 95.2661 7.43667C94.8253 8.05 94.3051 8.49296 93.7055 8.76556C94.4461 9.08926 95.0633 9.61741 95.5571 10.35C96.0684 11.0826 96.3241 11.9174 96.3241 12.8544C96.3241 14.4389 95.7687 15.7167 94.6577 16.6878C93.5644 17.6589 92.0215 18.1444 90.0289 18.1444H82.1465ZM89.3411 7.59C90.2581 7.59 90.9546 7.37704 91.4307 6.95111C91.9069 6.52519 92.1449 5.95444 92.1449 5.23889C92.1449 4.5063 91.9069 3.94407 91.4307 3.55222C90.9546 3.14333 90.2581 2.93889 89.3411 2.93889H85.1884V7.59H89.3411ZM89.6056 15.4356C90.5226 15.4356 91.2368 15.197 91.7482 14.72C92.2595 14.2259 92.5152 13.6041 92.5152 12.8544C92.5152 12.0878 92.2595 11.4659 91.7482 10.9889C91.2368 10.4948 90.5226 10.2478 89.6056 10.2478H85.1884V15.4356H89.6056Z" fill="#122659"/>
        <path d="M103.322 18.4C102.422 18.4 101.593 18.2296 100.835 17.8889C100.095 17.5311 99.5039 17.0541 99.063 16.4578C98.6398 15.8615 98.4282 15.2056 98.4282 14.49C98.4282 13.3315 98.9131 12.3944 99.883 11.6789C100.853 10.9633 102.184 10.4778 103.877 10.2222L107.501 9.71111V9.17445C107.501 8.42482 107.307 7.86259 106.919 7.48778C106.531 7.11296 105.905 6.92556 105.041 6.92556C104.459 6.92556 103.983 7.0363 103.613 7.25778C103.26 7.46222 102.978 7.66667 102.766 7.87111C102.555 8.09259 102.413 8.23741 102.343 8.30556C102.272 8.51 102.14 8.61222 101.946 8.61222H99.9095C99.7507 8.61222 99.6097 8.56111 99.4862 8.45889C99.3804 8.35667 99.3275 8.22037 99.3275 8.05C99.3452 7.62407 99.5568 7.13852 99.9623 6.59333C100.386 6.04815 101.029 5.57963 101.893 5.18778C102.757 4.79593 103.815 4.6 105.067 4.6C107.148 4.6 108.665 5.05148 109.617 5.95444C110.569 6.85741 111.045 8.04148 111.045 9.50667V17.5311C111.045 17.7015 110.983 17.8463 110.86 17.9656C110.754 18.0848 110.604 18.1444 110.41 18.1444H108.268C108.092 18.1444 107.942 18.0848 107.818 17.9656C107.695 17.8463 107.633 17.7015 107.633 17.5311V16.5344C107.245 17.0796 106.69 17.5311 105.967 17.8889C105.261 18.2296 104.38 18.4 103.322 18.4ZM104.221 15.9722C105.191 15.9722 105.984 15.6656 106.601 15.0522C107.219 14.4389 107.527 13.5444 107.527 12.3689V11.8322L104.882 12.2411C103.859 12.3944 103.084 12.6415 102.555 12.9822C102.043 13.323 101.787 13.7404 101.787 14.2344C101.787 14.7796 102.026 15.2056 102.502 15.5122C102.978 15.8189 103.551 15.9722 104.221 15.9722Z" fill="#122659"/>
        <path d="M122.056 18.4C120.24 18.4 118.829 17.7952 117.824 16.5856V17.5311C117.824 17.7015 117.763 17.8463 117.639 17.9656C117.533 18.0848 117.383 18.1444 117.189 18.1444H115.1C114.923 18.1444 114.774 18.0848 114.65 17.9656C114.527 17.8463 114.465 17.7015 114.465 17.5311V0.613333C114.465 0.425926 114.527 0.281112 114.65 0.17889C114.774 0.0596299 114.923 0 115.1 0H117.348C117.542 0 117.692 0.0596299 117.798 0.17889C117.921 0.281112 117.983 0.425926 117.983 0.613333V6.28667C118.988 5.16222 120.346 4.6 122.056 4.6C123.837 4.6 125.204 5.16222 126.156 6.28667C127.108 7.41111 127.62 8.86778 127.69 10.6567C127.708 10.8611 127.717 11.1337 127.717 11.4744C127.717 11.8322 127.708 12.1133 127.69 12.3178C127.62 14.1578 127.108 15.6315 126.156 16.7389C125.204 17.8463 123.837 18.4 122.056 18.4ZM121.078 15.6656C122.982 15.6656 123.996 14.5326 124.12 12.2667C124.137 12.0963 124.146 11.8407 124.146 11.5C124.146 11.1593 124.137 10.9037 124.12 10.7333C123.996 8.46741 122.982 7.33444 121.078 7.33444C120.09 7.33444 119.332 7.64111 118.803 8.25445C118.292 8.85074 118.018 9.57481 117.983 10.4267L117.957 11.3978L117.983 12.3944C118.036 13.3144 118.309 14.0896 118.803 14.72C119.297 15.3504 120.055 15.6656 121.078 15.6656Z" fill="#122659"/>
        <path d="M132.578 23C132.437 23 132.314 22.9489 132.208 22.8467C132.102 22.7444 132.049 22.6252 132.049 22.4889C132.049 22.3356 132.085 22.1993 132.155 22.08L134.218 17.3522L129.14 5.77556C129.069 5.62222 129.034 5.50296 129.034 5.41778C129.052 5.26444 129.113 5.13667 129.219 5.03445C129.325 4.91519 129.457 4.85556 129.616 4.85556H131.758C132.093 4.85556 132.332 5.01741 132.473 5.34111L135.991 13.6978L139.614 5.34111C139.755 5.01741 139.993 4.85556 140.328 4.85556H142.445C142.586 4.85556 142.709 4.90667 142.815 5.00889C142.938 5.11111 143 5.23037 143 5.36667C143 5.48593 142.965 5.62222 142.894 5.77556L135.409 22.5144C135.25 22.8382 135.003 23 134.668 23H132.578Z" fill="#122659"/>
    </symbol>
    <symbol id="icon-phone" viewBox="0 0 15 15">
        <path d="M11.404 9.92279C10.9139 9.43898 10.3021 9.43898 9.8152 9.92279C9.44375 10.2911 9.0723 10.6594 8.7071 11.034C8.60721 11.137 8.52294 11.1588 8.4012 11.0902C8.16085 10.9591 7.9049 10.853 7.67391 10.7094C6.59703 10.032 5.69494 9.16118 4.89587 8.18108C4.49945 7.69414 4.14673 7.17288 3.90014 6.58606C3.8502 6.46745 3.85956 6.38942 3.95632 6.29266C4.32777 5.9337 4.68985 5.56538 5.05506 5.19706C5.56385 4.68516 5.56385 4.08586 5.05194 3.57083C4.76165 3.27743 4.47135 2.99026 4.18106 2.69685C3.88141 2.3972 3.58488 2.09443 3.2821 1.7979C2.79204 1.32033 2.18025 1.32033 1.69331 1.80102C1.31874 2.16934 0.959777 2.54703 0.578966 2.9091C0.226247 3.24309 0.0483275 3.65199 0.0108707 4.12956C-0.048436 4.90677 0.14197 5.64029 0.41041 6.35508C0.959777 7.83461 1.79631 9.1487 2.81077 10.3535C4.18106 11.9829 5.81668 13.272 7.7301 14.2022C8.59161 14.6204 9.48433 14.9419 10.4551 14.995C11.1231 15.0325 11.7036 14.8639 12.1687 14.3426C12.4871 13.9868 12.8461 13.6622 13.1832 13.3219C13.6826 12.8163 13.6857 12.2045 13.1894 11.7051C12.5964 11.1089 12.0002 10.5159 11.404 9.92279Z" fill="#122659"/>
        <path d="M10.8075 7.43508L11.9593 7.23843C11.7783 6.18029 11.2789 5.22203 10.5204 4.46042C9.71817 3.65823 8.70371 3.15257 7.58625 2.9965L7.42394 4.15453C8.28857 4.27626 9.07516 4.66643 9.69632 5.28758C10.2831 5.8744 10.6671 6.61728 10.8075 7.43508Z" fill="#122659"/>
        <path d="M12.609 2.42842C11.2793 1.09872 9.59684 0.259073 7.73961 0L7.57729 1.15802C9.1817 1.38276 10.6363 2.11004 11.785 3.25558C12.8743 4.34493 13.5891 5.72145 13.8482 7.23531L15 7.03866C14.6972 5.28446 13.8701 3.69257 12.609 2.42842Z" fill="#122659"/>
    </symbol>
    <svg id="decorate-car" viewBox="0 0 106 84">
        <path d="M75.4729 53.8567C76.8017 54.9324 78.7536 54.4046 79.6636 53.0228C80.681 51.4766 79.7815 49.1313 77.8394 48.9269C77.6569 48.9081 77.5037 48.8253 77.3883 48.7077C76.4746 48.6957 75.6074 48.9616 74.9264 49.7541C73.8677 50.9889 74.2646 52.8785 75.4729 53.8567ZM72.7162 49.4694C73.8526 47.1335 77.2356 45.7022 79.5421 47.1963C79.7757 47.3473 79.9024 47.5598 79.953 47.7829C81.6866 48.5727 82.7456 50.7189 82.2278 52.7275C81.492 55.5859 78.2274 57.5129 75.441 56.2888C72.9545 55.197 71.4897 51.9925 72.7162 49.4694Z" fill="#8DD9E5"/>
        <path d="M5.04958 66.9503C6.7424 71.9413 9.8143 76.3153 11.8596 81.1544C11.965 81.0515 12.0838 80.9539 12.2307 80.8699C16.0195 78.6821 20.1501 77.1651 24.3875 76.1149C22.6079 73.1148 22.1006 69.4602 23.6746 65.627C25.9121 60.1788 34.7921 52.0753 40.43 57.8617L40.6402 58.1691C44.5472 58.7812 47.9192 61.5046 49.6845 65.0408C52.6591 63.9822 55.5753 62.8034 58.443 61.4807C60.6922 60.4409 62.932 58.9388 65.3523 58.3736C64.5048 56.9517 63.8895 55.3788 63.6042 53.6923C62.3563 46.321 67.772 38.8574 75.2174 38.0984C75.7102 38.049 76.0768 38.2173 76.3318 38.494C81.2109 38.1732 86.3425 40.6081 89.4136 44.5329C93.8436 42.9854 98.4098 41.7213 102.927 40.4704C103.187 40.3969 103.407 40.4237 103.606 40.4838C94.9289 28.613 82.1178 12.3389 66.4088 24.1135C65.1561 25.0529 63.8968 23.2462 64.6284 22.1116C57.1752 10.0163 44.821 0.315671 29.773 4.4116C11.3776 9.41758 7.64888 31.0304 16.2131 46.0243C16.5776 46.6644 16.5402 47.2631 16.2758 47.7308C16.5228 48.5153 16.1824 49.4654 15.1491 49.3505C4.57964 48.1678 2.34081 58.9616 5.04958 66.9503ZM38.7111 80.0957C43.7394 79.5946 48.0084 75.0515 47.6845 69.8407C47.3398 64.2855 42.5358 61.0678 37.6009 59.9637C37.3845 59.9141 37.239 59.8113 37.1284 59.6872C31.7194 58.6475 26.1163 65.1181 25.9508 70.179C25.7452 76.4933 33.0932 80.6533 38.7111 80.0957ZM78.4136 62.4386C84.2962 61.9244 90.0535 56.3797 88.5672 50.2298C87.2812 44.9098 81.456 41.3591 76.0319 40.997C75.9115 41.0798 75.7915 41.164 75.6388 41.2134C70.8108 42.7369 66.4651 46.4319 66.5507 51.9457C66.6456 58.0729 72.4889 62.9585 78.4136 62.4386ZM0.402344 56.5374C1.63992 50.8031 6.36592 46.0537 12.0078 46.166C2.76936 30.7658 8.7329 8.30708 26.0949 1.84714C42.1927 -4.1424 59.8917 5.06508 66.4063 20.3677C71.7907 16.0299 79.8128 16.1434 86.0577 18.7079C95.2303 22.4738 101.203 31.4033 105.835 39.7328C106.443 40.8286 105.238 41.6892 104.342 41.2442C104.511 41.8201 104.302 42.5298 103.57 42.8024C99.4425 44.3485 95.2725 45.9014 91.0548 47.2097C91.2764 47.6854 91.4802 48.1732 91.6424 48.6756C94.1539 56.488 87.1638 64.156 79.735 65.3373C74.5394 66.1657 69.3453 63.7764 66.2566 59.7219C64.3332 61.8242 61.2612 63.0964 58.7439 64.323C56.1104 65.6072 53.4131 66.7446 50.682 67.8043C50.9689 69.0389 51.0737 70.322 50.9402 71.6166C50.1064 79.6619 42.2918 84.7599 34.6132 83.1322C31.3964 82.4505 28.482 80.8431 26.3366 78.6444C21.9911 79.9046 17.9513 81.6983 13.9355 83.7894C12.8809 84.3392 11.9023 83.7321 11.5445 82.8942C10.7702 83.6172 9.27226 83.7294 8.6408 82.6201C4.27659 74.9522 -1.59619 65.7853 0.402344 56.5374Z" fill="#8DD9E5"/>
        <path d="M36.1525 72.0431C37.1795 72.312 38.4273 72.0165 38.99 71.0518C39.8463 69.5813 38.6103 67.6384 36.8983 67.8591C36.6693 67.89 36.5213 67.7532 36.4551 67.5757C35.5878 67.8523 34.8661 68.4402 34.5631 69.4225C34.1819 70.6587 34.9573 71.7288 36.1525 72.0431ZM32.122 69.4425C32.4998 66.822 35.4355 64.1721 38.1531 65.2825C38.6526 65.4871 38.9019 65.9945 38.8841 66.4597C40.5884 66.7389 41.9167 68.4256 41.7383 70.4541C41.4874 73.2938 38.9432 74.9393 36.234 74.4955C33.7627 74.0915 31.7441 72.0687 32.122 69.4425Z" fill="#8DD9E5"/>
        <path d="M43.7536 31.0304C47.7102 29.9894 51.5353 28.6344 55.3626 27.1951C55.2666 27.0601 55.181 26.9078 55.1227 26.7234C52.6335 18.9765 45.0682 12.1037 36.5913 12.566C39.2359 18.6064 41.7552 24.7509 43.7536 31.0304ZM34.1407 9.47639C44.8862 9.29865 55.2922 14.8819 58.2225 25.8668C58.3867 26.4802 58.2178 26.9813 57.8898 27.3261C57.9293 27.6361 57.8292 27.9648 57.5216 28.1519C53.0101 30.9115 48.1122 32.8359 43.1173 34.5197C42.2339 34.8177 41.4512 34.1682 41.1476 33.4011C38.3274 26.2663 35.7137 19.0741 32.6802 12.0221C32.1849 10.8715 32.7456 9.49911 34.1407 9.47639Z" fill="#8DD9E5"/>
        <path d="M32.6591 35.3509C33.0517 34.6426 31.3695 31.0745 31.1492 30.3342C29.6794 25.383 28.1 20.4104 26.9813 15.3577C19.7801 22.0114 19.0339 30.2727 20.9016 39.5002C23.4341 38.665 25.976 37.8512 28.4925 36.9665C29.3122 36.6792 32.2226 36.1393 32.6591 35.3509ZM26.5701 12.6048L26.5848 12.6008C26.8785 12.0021 27.7689 11.7054 28.1054 12.4698C29.8262 16.3867 31.1439 20.4732 32.4789 24.5344C33.4936 27.6201 36.127 32.3481 35.8846 35.4992C35.7536 37.2044 35.4173 37.5358 33.9635 38.4071C30.2855 40.6121 24.8185 41.4473 20.7761 42.7783C19.8122 43.095 19.134 42.4736 18.9498 41.7092C18.7348 41.597 18.5319 41.4393 18.3744 41.18C12.6177 31.7187 18.118 18.3097 26.5701 12.6048Z" fill="#8DD9E5"/>
    </svg>
    <symbol id="decorate-cloud" viewBox="0 0 91 62">
        <path d="M87.3826 37.2221C86.011 46.1938 71.2727 50.1967 65.5228 43.2038C64.2975 41.7131 61.8403 43.6509 62.868 45.2648C63.2013 45.7902 63.5768 46.2482 63.9747 46.6736C66.4109 53.6847 55.566 58.5623 50.1073 58.4452C42.8172 58.2913 37.6181 52.6532 36.7999 45.6088C36.7604 45.2757 36.6431 44.9958 36.4824 44.7612L36.5258 44.5528C36.7353 43.0981 34.6957 42.4265 34.2702 43.9281L34.2043 44.1364C33.7247 44.3726 33.3768 44.855 33.3953 45.6088C33.4019 45.8291 33.4335 46.0398 33.448 46.257C30.718 52.8464 24.7797 57.6996 17.1905 56.7835C7.62237 55.6281 3.03987 43.6069 12.9216 38.6718C14.4408 37.9117 13.3749 35.4921 11.7806 35.946C6.07686 37.564 1.05825 31.3207 5.76987 25.7448C8.48801 22.5267 13.3301 22.9211 16.8743 24.0137C17.8809 24.3241 18.3263 22.9474 17.5516 22.3941C17.3961 22.2827 17.2301 22.1982 17.0706 22.0956C17.4027 21.7562 17.4448 21.1832 16.9112 20.8278C9.53416 15.903 12.803 6.57342 21.0392 5.32371C27.1434 4.3967 32.9605 7.365 35.3585 13.0845C35.651 13.7808 36.236 13.8643 36.7446 13.628C37.1148 14.5078 38.6998 14.5326 38.9844 13.441C41.5537 3.58748 54.5976 0.78232 62.6532 5.4724C70.6706 10.1401 71.697 20.4127 66.5953 27.611C65.5716 29.054 67.8563 30.8088 69.0328 29.5037L69.2463 29.2317C69.4887 29.228 69.7285 29.1586 69.9301 28.9892C76.9343 23.0309 88.9624 26.8856 87.3826 37.2221ZM72.2214 24.2209C75.2966 15.8699 71.3083 5.68475 62.839 1.78387C54.1325 -2.22326 40.298 0.477254 37.2268 10.324C34.5047 2.11135 21.665 -0.429993 14.9098 3.80514C9.52889 7.17799 7.31671 16.1523 11.7134 20.3066C6.39705 19.8822 0.988432 23.0002 0.100392 29.1058C-0.662479 34.3584 3.02934 38.5163 7.54201 39.335C2.74211 45.2213 4.13214 54.3546 11.9308 58.0198C20.0984 61.8569 29.9116 58.0436 34.3281 50.6647C36.9514 58.1933 44.7883 63.045 53.0442 61.8077C58.9297 60.9284 67.2462 55.2541 67.1184 48.9247C70.7048 50.5429 75.2267 50.2548 79.0648 49.4035C85.4511 47.9896 90.3353 43.7343 90.9453 36.9101C91.8887 26.3588 80.4272 19.7718 72.2214 24.2209Z" fill="#FDFAF5"/>
    </symbol>
    <symbol id="decorate-girl" width="89" height="115" viewBox="0 0 89 115" fill="none">
        <path d="M82.6737 102.035C81.3714 102.768 79.996 103.326 78.5661 103.753L78.4968 103.611C78.4152 103.499 78.3189 103.397 78.2341 103.288C78.9442 102.167 79.5865 100.999 80.5184 100.037C81.5518 98.9707 83.5004 97.6251 85.0614 98.3372C87.3714 99.3922 83.6056 101.511 82.6737 102.035ZM35.126 93.6456C39.6068 81.9821 43.572 68.8058 43.3992 56.2244C46.2405 56.4854 49.0471 56.3081 51.6163 55.5816C53.2239 55.1277 54.7515 54.4479 56.1822 53.5987L56.2322 53.7143C62.6395 65.1813 70.703 75.2098 80.0476 84.3812C69.111 97.8483 50.4992 101.694 35.126 93.6456ZM38.2148 53.0786C30.728 50.7768 24.4885 45.4252 22.6321 38.4635C36.6421 40.4926 52.504 35.3 60.3424 23.0919C64.1585 27.9811 65.9455 34.2084 64.0107 40.7636C60.6044 52.3031 49.0295 56.403 38.2148 53.0786ZM22.9789 28.5044C23.8613 25.7485 25.325 23.4798 27.179 21.6269C25.5417 25.9408 26.3727 31.3865 29.8464 34.473C30.5176 35.0699 31.4275 34.2416 30.8728 33.5251C27.521 29.1919 27.0048 24.2693 29.6856 19.5262C31.171 18.4821 32.8055 17.6232 34.5368 16.9363C35.3276 22.0705 37.566 27.7708 41.0755 31.4503C41.6152 32.0155 42.5947 31.3559 42.205 30.6479C40.8997 28.2714 39.3513 26.0847 38.2319 23.597C37.1901 21.2797 36.5074 18.8845 35.8776 16.4454C37.5274 15.8852 39.2445 15.4674 40.9807 15.1736C43.2197 16.1607 45.1179 17.3368 46.8299 19.2299C48.4222 20.9912 49.5011 23.0833 50.9107 24.9688C51.2628 25.4399 52.1548 24.9798 51.9445 24.4183C50.5576 20.7338 47.3807 16.5955 43.4989 14.8447C45.5513 14.6365 47.5995 14.5821 49.5656 14.6758C49.6898 14.9109 49.8892 15.1176 50.1836 15.2487C53.5701 16.7563 56.6593 18.9557 59.1168 21.645C50.974 34.8905 36.5407 36.71 22.383 37.3811C21.842 34.6238 21.9752 31.6388 22.9789 28.5044ZM24.161 21.8228C23.3648 22.8471 22.6953 23.9546 22.1258 25.1082C21.7893 24.8664 21.4786 24.5958 21.244 24.1881C20.7735 23.3714 20.619 22.3504 21.1009 21.5009C21.895 20.1014 23.8762 19.868 25.1409 20.6781C24.7955 21.0517 24.465 21.4323 24.161 21.8228ZM3.51143 28.2756C7.04188 27.0733 9.83516 24.4516 11.1168 20.7859C12.0731 18.0508 11.6776 15.2454 14.702 13.3913C16.0004 12.5951 17.7872 12.3606 19.2636 12.4982C23.1296 12.8574 25.6375 15.3872 27.4141 18.5866C26.9937 18.9243 26.5852 19.2683 26.2001 19.6262C26.1535 19.564 26.1084 19.5005 26.0374 19.4471C23.9531 17.9039 20.6483 18.6035 19.5637 21.0413C18.8395 22.6704 19.6108 25.5932 21.3217 26.49C16.2342 30.8745 9.38872 31.269 3.51143 28.2756ZM52.1083 13.4364C51.7042 13.2665 51.2964 13.1059 50.8829 12.9615C50.3648 12.7816 49.9612 12.9342 49.7075 13.2304C49.0147 13.028 48.2948 12.8859 47.5628 12.7718C47.7196 12.722 47.8576 12.6065 47.9232 12.3909C48.3105 11.1121 49.6949 9.79203 51.1416 10.4315C52.3243 10.9551 52.5596 12.3615 52.1083 13.4364ZM57.258 2.97248C58.2481 3.17404 59.1921 3.47384 60.1176 3.76877C61.7586 4.2902 63.3412 4.79461 65.02 4.70016C62.8143 8.87713 60.6086 14.0038 55.401 14.3051C55.0642 14.3247 54.8241 14.4973 54.6794 14.7256C54.3453 14.5326 54.0138 14.3344 53.6712 14.1585C54.6507 12.3049 53.7284 9.64177 51.7724 8.83978C49.5663 7.93559 46.5888 9.68836 46.7543 12.1998C46.7692 12.4212 46.8907 12.5895 47.0485 12.6926C46.588 12.6341 46.1203 12.5973 45.6496 12.5709C45.0211 5.9443 50.7975 1.659 57.258 2.97248ZM50.06 110.501C50.0384 110.759 50.0142 111.017 49.9934 111.276C49.901 111.27 49.8077 111.276 49.7137 111.311C48.2117 111.882 46.7223 112.446 45.1212 112.669C43.8083 112.851 40.8376 113.097 39.8141 112.087C38.9639 111.246 40.5575 110.949 41.2883 110.772C42.0985 110.575 42.9046 110.446 43.7336 110.37C45.6062 110.2 47.447 110.328 49.2896 110.693C49.6004 110.755 49.8608 110.662 50.06 110.501ZM17.658 53.8358C17.344 53.7741 17.0287 53.9477 16.8407 54.2125C15.456 53.9786 13.7924 53.9491 12.9755 52.6502C12.2871 51.5569 12.6374 49.8641 13.7421 49.1699C14.8434 48.4772 16.5162 48.8532 17.3177 49.8345C18.1724 50.8818 18.2375 52.6296 17.658 53.8358ZM78.9258 34.4321C78.8322 33.1641 79.6112 31.9409 80.9175 31.7746C82.2778 31.6025 83.7391 32.579 83.9758 33.9533C84.2018 35.2644 83.5016 36.5014 82.4359 37.1973C80.9557 36.7756 79.0591 36.248 78.9258 34.4321ZM87.2458 97.481C85.8192 95.9958 83.3948 96.248 81.6918 97.0507C79.6375 98.0195 78.1509 99.9435 77.0597 101.922C76.1487 100.946 75.1773 100.011 74.3151 99.0167C73.1664 97.6927 72.0985 96.2725 70.8922 94.9969C75.2554 92.5124 79.2036 89.1278 82.463 84.8925C82.7351 84.5377 82.6794 83.8512 82.3424 83.5476C74.9409 76.8886 68.5261 69.1649 63.0785 60.8267C72.6877 58.189 81.827 48.7854 83.3654 38.8546C85.2207 37.7495 86.3524 35.5045 85.8624 33.3481C85.3344 31.025 82.9129 29.4524 80.5776 29.7576C78.3218 30.0519 76.8031 32.1512 76.8927 34.3763C77 37.0447 79.2605 38.0573 81.5374 38.4388L81.5634 38.5273L81.5509 38.5458C79.5338 43.4713 77.6788 47.8523 73.9093 51.7535C70.5674 55.2111 66.5152 57.4821 62.1973 59.4568C60.7863 57.2374 59.4401 54.9796 58.1644 52.6859C58.1037 52.5757 58.0303 52.4898 57.952 52.4153C62.7376 48.8633 66.0801 43.264 66.7428 37.3707C67.6735 29.0943 63.3115 20.7409 56.5826 15.9383C62.4723 14.8213 64.6732 8.57544 67.6045 3.88063C68.1358 3.02909 67.2013 2.23942 66.3837 2.56029C64.3102 3.37488 62.1082 2.58424 59.947 1.80692C58.7368 1.37095 57.5392 0.93968 56.3846 0.795819C53.7334 0.466095 50.9291 0.896132 48.604 2.2578C45.0452 4.34115 42.9915 8.61771 44.1937 12.5415C38.7212 12.6032 32.8138 14.6481 28.3903 17.8402C27.1995 12.9411 21.4406 9.90507 16.6266 10.7878C13.7864 11.308 11.6142 12.953 10.5679 15.6442C9.6641 17.9701 9.64758 20.3941 8.23065 22.5494C6.51928 25.1521 3.91308 26.5624 0.9085 27.0598C0.117173 27.1907 0.00528517 28.3093 0.630048 28.7103C6.61956 32.5523 14.7929 33.2135 20.6461 29.1669C19.2226 34.8592 20.2032 41.146 23.7524 45.9167C27.7183 51.2486 34.8375 55.0314 41.9522 56.0632C41.5451 58.0918 41.1968 60.1281 40.8604 62.1672C36.6996 62.3205 32.7724 62.2632 28.7431 60.8814C24.7926 59.527 21.9734 57.1531 18.8359 54.6639C20.2362 52.819 20.4771 50.4258 19.0176 48.5088C17.582 46.6231 14.765 46.0344 12.6954 47.1982C10.7872 48.2707 9.95827 50.8081 10.8065 52.8151C11.7989 55.1627 14.704 55.8581 17.0371 55.464C21.5683 62.5243 32.4755 66.1341 40.5457 64.0818C39.9522 67.7223 39.3585 71.3635 38.5163 74.9674C37.013 81.4008 35.0145 87.6828 32.6442 93.8468C32.4776 94.2801 32.709 94.9029 33.1172 95.1271C38.9064 98.3113 45.1478 99.904 51.3239 100.005C50.7979 103.023 50.4555 106.067 50.1798 109.117C50.0855 109.045 49.9678 108.987 49.8204 108.957C47.5556 108.479 35.6052 107.32 37.354 112.434C38.0231 114.392 40.7126 114.775 42.4667 114.861C45.2627 114.999 48.1934 114.186 50.3302 112.351C50.9205 112.793 52.0387 112.547 52.118 111.562C52.4299 107.715 52.6848 103.859 52.6301 99.9991C58.4988 99.8957 64.27 98.439 69.5097 95.7347C70.3895 97.4171 71.6101 98.9569 72.8111 100.407C74.1574 102.031 75.5576 103.832 77.2792 105.069C77.6063 105.305 77.9189 105.29 78.1689 105.151C78.3187 105.26 78.5169 105.312 78.7579 105.261C81.1331 104.749 90.972 101.363 87.2458 97.481Z" fill="#FEB9CC"/>
        <path d="M36.9167 44.0076C36.8363 42.5593 35.1754 41.5802 33.8575 42.2264C33.1929 42.552 32.7406 43.33 32.9588 44.0498C32.8848 44.2295 32.8201 44.4171 32.7667 44.6168C32.5809 45.31 32.9534 45.8499 33.5694 46.1282C35.0043 46.7769 37.0079 45.6615 36.9167 44.0076Z" fill="#FEB9CC"/>
        <path d="M59.4038 34.1258C58.7557 32.9634 56.8378 32.2862 55.836 33.4216C55.7239 33.5485 55.643 33.6918 55.5813 33.84C55.3679 34.0885 55.2013 34.3804 55.1057 34.6975C54.6292 36.2703 56.0935 37.5348 57.5853 37.3669C59.1375 37.1918 60.2097 35.5713 59.4038 34.1258Z" fill="#FEB9CC"/>
        <path d="M49.6208 44.7657C49.7267 44.3712 49.8184 44.0256 49.5419 43.6779C49.3877 43.4833 49.1865 43.3172 48.9716 43.1941C48.0436 42.6593 46.8475 42.9124 46.2816 43.8246C46.0233 44.2418 46.5085 44.8487 46.9625 44.5607C47.2913 44.3518 47.7403 44.3176 48.0904 44.4821C47.9002 45.1062 47.6904 45.7586 47.6767 46.3879C47.6619 47.0545 48.6314 47.4143 48.9775 46.7856C49.3157 46.1707 49.4395 45.4388 49.6208 44.7657Z" fill="#FEB9CC"/>
        <path d="M51.6841 47.2214C50.7116 49.1483 48.4483 50.3463 46.4021 49.1567C45.9376 48.887 45.5524 49.5286 45.9619 49.8501C48.1847 51.5925 52.1419 50.6852 52.9409 47.8002C53.1423 47.0749 52.053 46.4907 51.6841 47.2214Z" fill="#FEB9CC"/>
    </symbol>
    <symbol id="decorate-rocket" viewBox="0 0 135 68" fill="none" xmlns="http://www.w3.org/2000/svg">
        <path d="M90.7514 8.73031C94.4994 11.6685 98.0298 14.8312 101.423 18.1571C97.5323 18.8448 93.6422 19.1927 89.6569 19.3016C89.0226 19.3175 88.6178 19.6521 88.395 20.0809C84.3671 16.6156 80.0433 13.538 75.5061 10.8918C80.3962 6.90604 84.4413 3.78325 90.7514 8.73031ZM92.4642 28.881C92.5835 29.0072 92.7083 29.1028 92.8353 29.1824L92.8328 29.1891C91.6744 37.6572 90.5229 45.2385 83.1559 50.3356H83.1477C67.028 53.3309 50.4041 52.1838 35.9393 43.9214C31.8395 41.5806 27.9934 38.8057 24.3834 35.7254C32.2734 27.2466 34.161 14.8763 31.1868 3.92931L31.1443 3.82043C53.5235 1.80363 76.3565 11.8146 92.4642 28.881ZM100.292 30.5632C98.9211 38.1564 97.2124 45.678 95.184 53.1211C93.0307 51.8439 90.8707 50.5785 88.6468 49.4301C93.6142 44.965 95.1825 36.8407 95.8416 30.4172C97.3249 30.4836 98.8082 30.53 100.292 30.5632ZM103.464 36.688C109.917 34.2742 114.262 42.3082 118.659 46.456C116.467 48.5033 114.127 50.5347 111.181 51.3075C107.094 52.3789 103.395 50.6277 100.22 48.1462C100.042 48.0068 99.8364 47.9696 99.6441 47.9961C100.605 44.1829 101.459 40.3472 102.221 36.4875C102.517 36.7624 102.945 36.8832 103.464 36.688ZM123.751 41.1372C125.657 43.9002 127.496 46.4467 129.989 48.4914C125.498 51.3898 122.092 55.916 116.71 57.2331C110.027 58.8688 103.325 56.2492 98.7807 51.3513C98.9678 50.6529 99.1399 49.9532 99.3207 49.2521C101.48 52.8556 105.62 54.6905 109.788 54.4356C114.687 54.1342 118.568 50.6981 121.932 47.4505C122.653 46.7521 122.406 45.6395 121.632 45.1216C115.668 41.1279 111.546 30.6243 102.714 33.9662H102.709L102.751 33.7471L103.039 33.6436C111.846 29.5117 118.705 33.8268 123.751 41.1372ZM4.21457 12.7852C11.615 8.2311 19.4493 5.46813 27.3897 4.26257C27.3738 4.48164 27.3844 4.71001 27.4521 4.95962C30.3258 15.4565 27.8634 24.9085 22.3084 33.9011C15.4307 27.6556 9.43787 20.3173 4.21457 12.7852ZM81.8504 54.1063C83.952 56.216 89.1024 60.0584 89.7362 62.9462C90.2166 65.1197 90.613 64.1451 88.2887 64.5713C86.4474 64.9086 83.8587 64.5713 81.9842 64.5713C78.6663 64.5713 74.7375 65.1489 71.4767 64.5713C68.2184 63.9951 66.4548 62.8586 65.1307 59.6694C64.6031 58.3988 64.404 56.8852 64.0775 55.4951C69.6959 55.6132 75.4765 54.8445 81.3804 53.0335C81.3711 53.3853 81.5064 53.7611 81.8504 54.1063ZM73.4031 9.70221C50.9498 -2.55392 23.6855 -4.26534 0.871219 10.767C0.126929 11.2583 -0.300268 12.3324 0.248995 13.1463C14.6333 34.5039 36.5813 53.9111 62.0305 55.4194C61.7957 59.1144 62.0264 65.0015 65.5406 67.0581C67.8002 68.3805 71.1254 67.8375 73.5782 67.8388C77.4309 67.8402 81.2835 67.8388 85.1367 67.8388C87.9467 67.8388 93.9366 69.0922 93.9833 64.6085C94.0257 60.3558 87.189 54.5073 84.139 52.0483C85.1947 51.7058 86.1514 51.2411 87.0246 50.6781C89.5796 53.0122 92.3979 54.9189 95.3644 56.7033C96.2013 57.2078 97.2917 56.7245 97.5571 55.8111C97.7033 55.3052 97.8308 54.7967 97.9738 54.2922C101.667 58.7799 107.159 61.2733 113.107 61.2268C122.407 61.1551 126.415 53.7199 134.15 50.1749C135.358 49.62 135.206 47.7678 134.15 47.169C127.313 43.3 125.316 34.7389 118.45 30.8381C113.729 28.1561 108.33 28.0419 103.44 29.9286C103.463 29.7879 103.492 29.6498 103.514 29.509C103.672 28.5544 103.124 27.637 102.076 27.6197C99.8726 27.5839 97.6701 27.5374 95.4664 27.5573C95.4716 27.1524 95.3432 26.7328 94.986 26.3557C93.6687 24.9616 92.301 23.622 90.8996 22.3208C95.7277 22.3221 100.446 21.7499 105.181 20.7342C106.413 20.47 106.705 18.8528 105.897 18.015C102.345 14.3306 98.6465 10.8095 94.6969 7.55397C92.3565 5.62613 89.5304 2.70117 86.5785 1.87135C81.6898 0.495842 76.4171 5.52921 73.4031 9.70221Z" fill="#FFD787"/>
        <path d="M50.9441 16.2225C55.527 18.5686 56.945 24.0454 55.6582 28.7442C55.0943 30.8048 53.6919 33.6913 51.4391 34.456C48.8162 35.3456 45.3139 33.666 43.4353 31.9613C40.1049 28.938 39.6457 24.3216 40.5946 20.1645C42.5515 16.1814 46.7318 14.0676 50.9441 16.2225ZM37.3536 19.2165C37.1758 19.8259 37.3919 20.373 37.778 20.7647C32.0399 33.7935 53.4929 46.525 58.7231 31.1328C61.0209 24.3707 58.8925 16.1654 52.0895 12.9789C46.3804 10.3062 39.1669 13.0068 37.3536 19.2165Z" fill="#FFD787"/>
    </symbol>
    <symbol id="decorate-star" width="56" height="58" viewBox="0 0 56 58" fill="none" xmlns="http://www.w3.org/2000/svg">
        <path d="M1.07646 35.1596C6.54555 36.6885 11.9783 38.3604 17.411 40.0147L17.4507 40.173C19.4618 45.842 21.7869 51.4174 23.97 57.0225C24.3755 58.0642 25.818 58.425 26.4494 57.347C28.2776 54.2277 30.162 51.1424 31.9747 48.0143C33.3004 45.7265 35.0525 43.3672 35.5341 40.7406C35.6432 40.7967 35.7633 40.844 35.9043 40.8715C41.5795 41.9692 47.2844 42.3861 53.0587 42.0132C54.11 41.945 54.7238 40.9177 54.2324 39.9695C51.5424 34.7736 48.4084 29.9054 44.297 25.7136C43.7295 25.1351 42.6991 25.8907 43.1564 26.5925C45.875 30.7743 48.5451 34.9716 50.8614 39.3844C46.0789 39.5043 41.3635 39.1435 36.6361 38.224C35.7644 38.0546 35.1451 38.642 34.9666 39.3096C34.7869 39.2766 34.6007 39.2964 34.4475 39.4064C32.086 41.0914 30.8496 44.0579 29.428 46.5283C28.1013 48.8337 26.8108 51.1578 25.5105 53.4775C23.733 48.7886 21.9908 44.0766 20.0469 39.4592C19.8927 39.0929 19.6315 38.8498 19.3318 38.7101C19.3207 38.1789 19.0342 37.6587 18.3808 37.4596C13.7238 36.0429 9.06355 34.6218 4.42865 33.1325C9.04592 29.1552 13.8516 25.5135 18.7565 21.8629C19.2447 21.4988 19.3152 20.9686 19.1444 20.5463C19.205 20.4044 19.2491 20.2493 19.2568 20.0656C19.453 14.6089 19.3494 9.13359 19.3472 3.66924C23.9347 6.87218 28.5068 10.0542 33.0194 13.3726C32.8353 14.3362 33.9219 15.4988 35.1175 14.9312C40.5514 12.3541 46.1251 10.3622 51.9336 8.94991C49.0784 14.1833 45.6612 19.0504 42.9074 24.3354C42.4919 25.1329 43.4815 25.9171 44.1548 25.2957C49.29 20.5518 52.8075 13.8126 55.8335 7.60802C56.3889 6.46962 55.4787 5.26302 54.2269 5.5204C47.399 6.92718 40.8302 9.12041 34.5533 12.1287C29.9625 7.46834 24.4934 3.21389 18.7202 0.156138C17.8816 -0.288225 16.8171 0.259521 16.8149 1.24724C16.8038 7.51452 16.5691 13.8005 16.7377 20.0656C16.7421 20.2229 16.7851 20.3516 16.8303 20.4781C10.8146 23.6205 5.24413 27.9685 0.424096 32.697C-0.372633 33.479 0.0141513 34.8627 1.07646 35.1596Z" fill="#FEB9CC"/>
    </symbol>
    <symbol id="decorate-pencil" width="44" height="132" viewBox="0 0 44 132" fill="none" xmlns="http://www.w3.org/2000/svg">
        <path d="M32.7747 128.836C35.6849 128.398 38.6226 127.868 40.4614 125.449C42.5028 122.758 41.4863 119.604 40.4888 116.648C38.6637 118.651 35.7303 119.632 33.2096 120.302C30.2646 121.085 26.0624 121.303 22.7173 120.25C23.0783 122.343 23.3865 124.732 24.3133 126.589C25.3245 128.615 26.5416 128.983 28.8691 129.165C30.1517 129.264 31.5165 129.027 32.7747 128.836ZM39.3266 109.294C39.1915 109.126 39.1546 108.951 39.1789 108.794C36.7078 112.593 30.69 114.796 26.2936 114.929C24.2025 114.993 21.7061 114.768 19.6108 113.878C21.1962 118.32 25.9273 119.454 30.5422 118.639C34.2567 117.983 44.0577 115.151 39.3266 109.294ZM37.7486 103.301C37.6346 103.373 37.5111 103.43 37.3759 103.467C32.7103 108.595 24.0621 108.298 17.6801 107.164C16.1717 112.573 24.9794 113.006 28.278 112.474C32.3863 111.81 39.7066 108.874 37.7486 103.301ZM35.3735 102.154C32.6048 74.3566 26.245 47.5381 18.4043 20.7676C16.7354 22.5462 14.8259 23.9442 12.7475 24.9396C12.9533 25.063 13.1507 25.2177 13.3111 25.4446C16.689 30.2219 17.3983 37.3968 18.818 43.0033C20.5312 49.7788 22.1315 56.5825 23.6219 63.4102C26.529 76.7426 28.9842 90.165 31.0447 103.651C31.0858 103.92 31.0732 104.17 31.0373 104.409C32.5573 104.03 34.0425 103.457 35.4939 102.601C35.4369 102.465 35.3915 102.32 35.3735 102.154ZM17.3424 19.4711C13.8748 16.2413 10.6068 12.7866 7.3187 9.356C6.55658 10.9809 4.95212 12.0118 3.12388 12.1185C3.2421 15.9861 3.34767 19.8538 3.29278 23.7183C3.29067 23.8166 3.25795 23.8908 3.23895 23.9755C8.40172 24.3164 13.4019 22.9299 17.3424 19.4711ZM5.29413 9.27444C5.04713 9.16883 4.81173 9.04441 4.59006 8.90743C4.52884 9.26816 4.44228 9.62576 4.33884 9.98126C4.76634 9.84952 5.15162 9.6268 5.48835 9.32672L5.29413 9.27444ZM19.6319 104.885C22.0101 105.019 24.3017 105.139 26.5184 105.034L26.4814 104.896C24.4273 91.4092 21.9795 77.9859 19.0788 64.6503C17.6632 58.1477 16.1464 51.6661 14.5272 45.2095C13.0473 39.305 9.85101 32.355 10.268 26.2612C10.2775 26.1232 10.3176 26.0061 10.3503 25.8858C7.94677 26.6324 5.36907 26.8739 2.70271 26.554C10.2585 52.0781 14.9568 78.7376 19.6319 104.885ZM24.174 131.19C21.0284 129.526 20.5798 123.258 20.1048 120.226C20.0404 119.812 20.1565 119.459 20.3687 119.19C18.2934 117.885 16.9982 115.769 17.373 112.544L17.3877 112.495C17.012 112.159 16.6647 111.793 16.3712 111.37C14.9462 109.3 15.0645 106.3 17.2759 104.983C12.415 77.9984 5.73219 51.4287 0.518749 24.5307C0.431137 24.0822 0.695033 23.7643 1.02331 23.6483C0.43853 16.2454 0.452249 8.7966 0.00257831 1.38332C-0.074478 0.118146 1.59542 -0.428696 2.44093 0.382687C8.52416 6.21607 14.8586 12.2544 19.578 19.2599L19.6488 19.4261C19.7628 19.5192 19.8588 19.6457 19.9232 19.812C29.8318 45.6549 35.2954 73.2869 38.1212 100.751C38.4621 100.603 38.8601 100.827 38.9012 101.164C39.1124 101.24 39.3076 101.386 39.4427 101.661C40.7073 104.255 40.4909 106.526 39.4016 108.425C39.6021 108.272 39.8998 108.235 40.1795 108.449C42.2537 110.045 42.7097 112.785 41.5549 115.138C41.4905 115.269 41.3998 115.379 41.329 115.502C41.5497 115.523 41.7566 115.627 41.8727 115.875C43.285 118.906 44.8251 122.448 43.4856 125.777C42.1661 129.056 38.4906 130.262 35.3081 130.981C32.1857 131.688 27.1401 132.759 24.174 131.19Z" fill="#8DD9E5"/>
    </symbol>
    <svg id="decorate-house" width="58" height="97" viewBox="0 0 58 97" fill="none" xmlns="http://www.w3.org/2000/svg">
        <path d="M52.9075 60.9783C51.4578 60.5893 49.9825 60.2703 48.5004 59.9822C48.8939 57.0383 49.1121 54.0688 49.2266 51.1626C50.7747 51.4439 52.32 51.7306 53.8654 52.0348L54.1012 52.0591C53.7509 55.042 53.3507 58.0142 52.9075 60.9783ZM51.4173 70.0349L51.319 69.9959C49.7103 69.7226 48.0868 69.5288 46.4579 69.3699C47.1572 67.1866 47.6934 64.9305 48.0949 62.6394C49.5311 63.0985 50.9741 63.5279 52.4319 63.8805C52.1058 65.9333 51.7865 67.9888 51.4173 70.0349ZM46.3596 93.0856C40.4597 91.8081 34.5276 90.7313 28.5415 89.9344C25.3511 89.509 22.1486 89.1725 18.942 88.8938C19.2896 83.6777 19.8865 76.9081 25.7553 75.1999C33.7098 72.8846 33.3743 84.2148 33.1372 88.7848C33.0536 90.4176 35.2996 90.4943 35.8116 89.1469C38.23 82.7839 35.0692 71.1145 26.6392 71.9302C18.1997 72.75 16.3431 81.6949 16.8995 88.708C15.8486 88.63 14.4461 88.6838 12.9533 88.7363C10.1212 88.8373 6.96722 88.9382 5.27366 88.1467C3.96139 88.5519 3.50467 88.0727 3.90347 86.7091C3.81185 85.8045 3.80512 84.8986 3.87788 83.9926C3.89674 82.2535 4.01126 80.5103 4.07728 78.7725C4.22548 74.858 4.37773 70.9436 4.52324 67.0277C4.53806 66.6064 4.55556 66.1837 4.57172 65.761C7.88878 66.6158 13.8223 68.4425 15.6694 65.0947C16.9022 62.8602 17.0181 59.5326 17.2148 56.6816C17.9127 56.2858 17.9693 55.2372 17.3913 54.7243L17.4209 54.4511C17.7888 51.7347 18.267 49.0142 18.5338 46.2816C26.0652 47.4096 33.5966 48.5161 41.1105 49.7586L41.0229 49.9161C38.9831 56.4043 38.3876 63.5333 37.9848 70.2907C37.9336 71.1428 38.7123 71.7175 39.4762 71.7808C43.2837 72.0958 47.1464 72.5454 50.9687 72.5292C49.6686 79.4267 48.1326 86.2783 46.3596 93.0856ZM4.89911 56.5739C5.9244 56.6183 6.94971 56.6574 7.975 56.6951C7.96557 59.3267 8.10568 61.9637 8.43577 64.6101C7.14236 64.4997 5.79237 64.2871 4.63235 64.2184C4.73339 61.6716 4.82635 59.1234 4.89911 56.5739ZM8.99357 44.7995C8.46812 48.0571 8.1259 51.3133 8.01138 54.5776C6.99013 54.614 5.97023 54.6544 4.95167 54.6974C5.02577 51.1787 5.02307 47.66 4.84118 44.1453C6.22351 44.3742 7.60989 44.5801 8.99357 44.7995ZM14.2238 56.8391C14.1928 57.0854 14.1658 57.3331 14.1349 57.5781C13.8371 59.9041 14.2763 63.7298 11.5723 64.4822C11.1479 64.5994 10.6656 64.6519 10.1576 64.6694C10.0956 62.0256 10.1078 59.394 10.2102 56.7704C11.5494 56.8095 12.8873 56.8296 14.2238 56.8391ZM10.3206 54.5009C10.5106 51.3847 10.8394 48.2779 11.3634 45.1711C12.7902 45.3932 14.217 45.6287 15.6452 45.8441C15.144 48.679 14.8341 51.5677 14.5094 54.4336C13.115 54.4417 11.7178 54.4619 10.3206 54.5009ZM41.0836 68.9257C41.2951 66.103 41.6265 63.299 41.9741 60.4978C43.025 60.8882 44.084 61.2718 45.1456 61.6473C44.8991 64.1632 44.6781 66.6804 44.5421 69.199C43.3888 69.1034 42.2355 69.0132 41.0836 68.9257ZM45.3599 59.4155C44.2955 59.2392 43.2298 59.0709 42.1668 58.9121C42.5306 56.0153 42.8984 53.1184 43.1624 50.2055L43.1517 50.0938C44.1743 50.2674 45.1955 50.4491 46.2168 50.6282L46.1346 50.9283C45.9352 53.7592 45.6455 56.5874 45.3599 59.4155ZM33.7125 6.55409C40.709 20.1699 47.2151 34.0199 53.1769 48.1231C41.7195 45.8401 30.0721 43.79 18.3815 42.6579C17.9342 42.215 17.1542 42.1383 16.6355 42.4963C12.9102 42.1665 9.18354 41.9229 5.45691 41.8112C16.7985 32.0708 25.8483 19.2505 33.7125 6.55409ZM57.8318 48.3088C51.1209 32.2525 43.7741 16.4964 35.7509 1.05123C34.9843 -0.425434 32.8286 -0.273326 32.023 1.05123C23.2413 15.4882 12.3807 28.1079 2.4888 41.7183C1.37998 41.7143 1.07145 43.518 2.22609 43.7159L2.30556 43.728C1.12397 52.7321 1.04585 61.8775 0.709026 70.9435C0.546002 75.2941 0.384312 79.642 0.222636 83.9926C0.157965 85.7614 -0.535879 89.1052 0.911121 90.6747C1.7963 91.6358 2.83776 91.5402 3.97758 91.7664C6.44852 92.2577 9.18353 92.2456 11.8822 92.2348C13.6067 92.2281 15.3164 92.2214 16.9332 92.3439C27.135 93.126 37.2168 94.7238 47.1976 96.9516C48.1434 97.1629 49.1606 96.6716 49.4207 95.6903C53.3292 80.9612 56.114 66.0249 57.8211 50.8839C57.8615 50.538 57.8049 50.2512 57.6917 50.0103C58.0124 49.5795 58.1215 49.0021 57.8318 48.3088Z" fill="#FFD787"/>
    </svg>
    <svg id="decorate-rainbow" width="153" height="126" viewBox="0 0 153 126" fill="none" xmlns="http://www.w3.org/2000/svg">
        <path d="M148.314 66.7538C145.682 73.0234 139.187 74.5012 133.299 72.6829C133.196 72.4295 133.095 72.1751 132.971 71.9289C132.237 70.4705 129.531 70.9405 129.995 72.742C131.198 77.4117 130.792 82.4334 126.523 85.4868C121.852 88.8272 115.629 86.6876 112.327 82.5916C111.973 82.1545 111.538 82.0493 111.14 82.1237C110.85 82.1069 110.556 82.207 110.374 82.4606C108.834 84.6129 107.697 86.6033 104.915 87.2963C101.912 88.0453 99.0516 86.6387 97.588 83.9735C94.1954 77.8006 99.1135 72.2999 105.167 71.2525C106.358 71.0459 106.385 69.308 105.162 69.125L104.896 69.1067C99.7735 65.6698 92.3629 61.2199 97.4932 54.2072C102.215 47.7527 110.125 50.5048 115.218 54.7217C116.421 55.7176 118.271 53.8821 117.156 52.7252C116.958 52.5176 116.74 52.3292 116.529 52.1316C117.179 52.2855 117.988 51.9813 118.014 51.2C118.241 44.1999 123.794 37.7741 131.264 38.8993C138.614 40.0068 141.533 47.7486 137.807 53.5855C137.197 53.7831 136.906 54.3088 136.934 54.852C136.081 56.4725 138.499 58.051 139.841 56.5547L139.925 56.4476C141.784 56.7061 143.674 56.9251 145.395 57.651C149.236 59.2693 149.799 63.2125 148.314 66.7538ZM67.749 43.5978C56.2862 48.2406 49.8209 60.8151 53.0281 72.6416C50.1414 72.3986 47.1616 72.8666 44.4085 73.9784C41.4137 58.4257 45.3942 42.5036 60.7238 35.0468C75.5322 27.8418 93.0057 33.7408 101.336 47.6187C98.8467 48.2428 96.5498 49.6227 94.7662 51.9749C90.2786 42.3366 77.5456 39.6302 67.749 43.5978ZM61.4804 81.41C66.6311 88.6517 60.9701 97.2983 52.9207 96.8401C52.5646 96.5265 52.187 96.2309 51.7703 95.9736C50.5104 95.1959 48.6334 96.7341 49.815 97.9865C53.0259 101.39 54.5164 106.896 50.7257 110.6C46.6656 114.565 39.8073 112.464 36.9582 108.155C36.772 107.874 36.484 107.876 36.2667 108.016C35.6865 107.71 34.9228 107.823 34.6295 108.602C32.1909 115.051 29.8977 122.349 21.2973 122.196C9.62124 121.986 15.7528 107.884 18.2745 102.028C19.121 101.149 18.096 99.8154 16.9484 100.164C13.268 101.285 4.19678 105.166 3.5638 98.1233C3.01272 92.0116 10.0555 90.3318 14.876 90.379C15.1067 90.5243 15.3289 90.6805 15.5779 90.8035C16.7991 91.4112 18.1304 89.6516 17.1892 88.6497C12.4227 83.5728 13.983 77.9241 20.624 75.277C26.7065 72.8525 34.6465 74.5152 35.2128 82.1631C35.3124 83.5033 37.3554 83.4446 37.529 82.1574C37.55 81.9941 37.559 81.8402 37.5731 81.6813C37.9964 81.8614 38.4923 81.852 38.9285 81.4891C45.5506 75.9686 55.5819 73.1134 61.4804 81.41ZM24.6043 34.9924C30.7544 22.1045 41.7464 12.2498 55.085 7.21279C82.4289 -3.11059 112.792 10.0256 125.204 36.1252C120.991 37.6822 117.821 41.4096 116.456 45.9583C110.282 24.1901 86.5479 10.5825 64.3566 16.2321C43.6843 21.4947 17.2922 49.3175 31.8942 71.5056C32.7473 72.8012 34.7963 71.5105 34.2061 70.1338C24.6877 47.9571 45.8382 23.9529 66.9727 19.5458C87.8259 15.1969 109.067 29.1813 113.59 49.8891C111.106 48.3665 108.256 47.413 105.436 47.2492C105.407 47.0257 105.334 46.7916 105.192 46.5472C96.081 30.9263 77.1192 23.7769 60.2836 31.3835C44.5378 38.4984 34.8315 58.2726 42.5784 74.5935L42.7014 74.7598C40.7576 75.7801 38.9748 77.1487 37.487 78.8553C36.1979 71.4239 26.4908 69.4362 19.716 71.9535C19.0409 58.9167 18.8069 47.1421 24.6043 34.9924ZM141.884 53.4092C144.961 46.6241 141.208 38.0986 133.624 35.9207C132.12 35.4883 130.669 35.3134 129.284 35.3493C129.249 35.2168 129.203 35.0817 129.138 34.9437C115.922 7.08886 83.9215 -6.87615 54.6385 3.47934C40.5784 8.45106 28.8635 18.6112 22.0265 31.8548C15.9046 43.7139 12.5238 59.9845 17.4967 72.8053L17.5774 72.9371C14.0112 74.8456 11.0439 77.76 10.8213 82.0354C10.7021 84.3192 11.3522 86.5853 12.6687 88.3514C6.37901 88.4442 -0.627004 91.4021 0.567898 98.9653C1.58185 105.374 8.10082 106.182 13.4346 104.534C9.0765 111.577 9.38232 123.281 18.2612 125.538C26.2915 127.582 37.2085 119.728 37.1977 111.105C40.5118 115.878 47.8589 117.208 52.5239 113.229C56.1756 110.115 57.1684 104.2 55.1477 99.8586C63.5053 100.061 69.6828 89.3798 65.9934 81.4915C63.8421 76.8938 60.0277 74.1456 55.739 73.0817C54.256 63.683 56.5831 54.265 64.9828 48.7198C74.1224 42.6857 89.581 44.1812 92.3985 56.5009C92.4259 56.6204 92.4661 56.7286 92.5106 56.8336C91.4881 62.2249 95.4513 66.9304 100.665 69.4838C94.2606 71.5512 91.0492 80.1253 95.1669 86.1011C97.433 89.39 101.377 91.0183 105.281 90.0501C107.6 89.475 110.199 87.8867 111.366 85.6698C115.235 90.0612 121.968 91.5239 127.265 88.7231C131.884 86.282 134.688 80.6385 134.036 75.4729C141.065 78.198 149.364 74.2196 151.913 66.8561C154.679 58.8685 148.863 53.9866 141.884 53.4092Z" fill="#FEB9CC"/>
    </svg>
    <svg id="decorate-boy" width="118" height="133" viewBox="0 0 118 133" fill="none" xmlns="http://www.w3.org/2000/svg">
        <path d="M57.0935 25.9732C55.0531 24.9294 52.3865 25.8239 51.3569 27.844C50.9865 28.5705 51.95 29.4451 52.5441 28.7629C53.4492 27.7235 54.869 27.0988 56.2249 27.603C57.7252 28.1614 58.2367 29.863 57.7593 31.2916C57.4275 32.2823 58.9642 32.6891 59.3092 31.7206C60.0688 29.5921 59.1329 27.0159 57.0935 25.9732Z" fill="#8DD9E5"/>
        <path d="M80.0332 33.7903C77.5012 33.0826 74.4951 34.9336 74.5094 37.69C74.5116 38.1301 75.1399 38.328 75.3582 37.9211C76.1056 36.5235 77.5861 35.2675 79.2837 35.6113C81.1213 35.9828 81.7408 37.9443 81.431 39.5796C81.2624 40.4786 82.5499 41.1884 83.0074 40.2475C84.2078 37.7785 82.6635 34.5256 80.0332 33.7903Z" fill="#8DD9E5"/>
        <path d="M64.6667 36.4352C64.1541 36.3899 64.9919 36.4264 64.411 36.38C64.2423 36.3656 64.1178 36.3601 63.948 36.4021C63.6537 36.4784 63.3704 36.6553 63.1389 36.8455C62.6506 37.2435 62.3353 37.793 62.203 38.4089C61.934 39.6572 62.3143 41.0946 63.5093 41.7038C63.8885 41.8984 64.2357 41.8221 64.5554 41.5689C65.4163 40.8878 64.023 40.0796 63.9447 39.3642C63.9017 38.9772 64.0108 38.567 64.1861 38.2231C64.3382 37.9246 64.6127 37.751 64.7968 37.5022L64.9357 37.4304C65.466 37.1904 65.1341 36.4762 64.6667 36.4352Z" fill="#8DD9E5"/>
        <path d="M67.4349 44.0898C63.6472 43.6497 60.3787 42.742 57.1875 40.5505C56.7697 40.2641 56.278 40.9109 56.6484 41.2526C59.5255 43.9162 63.4499 45.7085 67.4349 45.4885C68.3498 45.4376 68.3134 44.1915 67.4349 44.0898Z" fill="#8DD9E5"/>
        <path d="M113.256 42.3495C111.409 43.0903 109.833 42.2445 108.534 41.047C108.583 40.9331 108.647 40.8248 108.693 40.7109C108.931 40.1127 108.474 39.6693 107.95 39.5787C107.734 37.9644 107.962 36.3987 109.751 35.4666C111.773 34.4118 114.517 35.2632 115.24 37.5033C115.834 39.3421 115.129 41.5999 113.256 42.3495ZM75.8035 48.4894C62.3946 51.6738 47.4016 44.3552 46.5197 29.455C46.2474 24.8576 47.3244 20.6858 49.3131 16.9973C54.0168 18.3053 58.7745 18.4159 63.5322 17.7005C62.4188 18.9853 61.2382 19.997 59.5979 21.1425C58.8715 21.65 58.8935 22.8873 59.8559 23.1283C66.5317 24.7979 72.9628 24.7083 79.2914 22.6429C78.2066 23.6657 76.9279 24.4684 75.4464 25.0069C74.3848 25.3916 74.3815 26.7936 75.4464 27.1795C81.5137 29.3787 87.6736 29.5612 93.7894 27.5566C92.9384 37.3927 85.8018 46.1155 75.8035 48.4894ZM79.8106 59.2665C77.0227 58.6838 74.225 58.1332 71.4019 57.7694C71.403 55.9461 71.3864 54.1218 71.3357 52.2952C72.8239 52.2067 74.3131 52.0121 75.7881 51.6959C77.0216 51.4316 78.2177 51.0811 79.3751 50.6599C79.6264 53.5678 80.0354 56.3243 79.8106 59.2665ZM66.1139 86.7293C59.922 86.0681 53.8635 84.6929 48.0299 82.4673C42.0144 80.1695 34.0059 76.7253 29.5204 71.9089C28.5129 70.8276 28.0697 71.1847 28.4644 69.7595C28.6727 69.0098 32.2697 66.4668 32.8793 65.915C35.0531 63.9513 37.1707 61.9301 39.2222 59.8415C43.4982 55.484 48.0189 50.8965 50.9919 45.5085C55.5942 49.688 61.8368 52.0586 68.3318 52.3228C68.6526 63.8673 67.924 75.3277 66.1139 86.7293ZM40.0048 44.5277C41.8645 42.4192 43.8189 40.3914 45.6565 38.2574C46.7269 40.5661 48.1468 42.6215 49.851 44.3962C48.4819 45.598 47.169 46.8685 45.8814 48.1665C44.1 46.7457 42.0563 45.566 40.0048 44.5277ZM64.4968 3.14302C64.6555 3.44377 64.9586 3.65606 65.4415 3.62178C77.2994 2.76708 89.8794 7.06046 93.1677 19.9152C93.5888 21.5626 93.8137 23.2145 93.8655 24.8498L93.6042 24.914C88.5797 26.6853 83.79 27.0214 78.8306 25.8195C80.7663 24.6176 82.2566 23.01 83.4494 20.7876C83.9939 19.7714 82.9269 18.8415 81.9579 19.2916C75.7947 22.1475 69.1994 23.0033 62.6415 21.5892C64.3391 20.2004 65.7468 18.6138 67.0222 16.691C67.5624 15.8772 66.6717 14.8633 65.7986 15.0944C60.3872 16.5251 55.4476 16.5716 49.9954 15.8263C53.3113 10.3853 58.6279 6.0753 64.4968 3.14302ZM50.4826 127.612C50.9313 127.616 51.3744 127.681 51.8088 127.805C53.1106 127.988 53.352 128.544 52.5308 129.476C51.9796 130.743 51.8253 130.597 50.6315 130.562C49.7738 130.537 48.9217 130.435 48.0828 130.259C46.8901 130.009 45.769 129.585 44.692 129.045C44.7703 128.926 44.8353 128.789 44.8772 128.624C46.1196 128.229 47.3365 127.816 48.6615 127.67C49.2634 127.603 49.8785 127.574 50.4826 127.612ZM7.03143 112.723C5.97208 112.307 3.44108 111.196 3.02991 110.029C2.71574 109.134 3.73871 109.57 4.31634 109.773C5.08027 110.041 5.78246 110.404 6.46592 110.833C7.62558 111.557 8.50636 112.485 9.44005 113.422C8.62541 113.23 7.8163 113.03 7.03143 112.723ZM30.9281 12.2063C29.4432 11.6358 28.3497 10.3941 28.364 8.69356C28.3828 6.52752 30.3736 5.02821 32.2939 4.52733C34.8194 3.86834 37.5642 4.72747 37.0571 7.83776C36.6206 10.5224 34.5206 12.7282 31.7097 11.6358C31.2323 11.4511 30.9446 11.8105 30.9281 12.2063ZM117.441 36.1499C115.95 32.8329 111.66 31.6343 108.544 33.3957C106.156 34.7435 104.594 38.4752 105.754 41.1178C102.606 44.2624 99.9637 47.4854 95.907 49.8262C91.7181 52.2421 87.2238 53.2991 82.5653 54.2246C82.4925 52.6402 82.2666 51.0811 81.7827 49.6493C92.4876 44.5322 98.9925 32.7356 96.6544 20.5034C94.3163 8.26676 80.7861 -2.287 68.258 0.430772C68.1345 0.350057 67.9703 0.314668 67.7751 0.354472C53.33 3.33098 41.7256 15.9756 43.6999 31.4342C43.9082 33.0706 44.2874 34.6097 44.7868 36.0726L44.5608 36.2472C43.7782 37.1517 42.9801 38.0573 42.172 38.9529C42.1467 38.7472 42.0794 38.536 41.913 38.3293C35.6384 30.5651 33.0567 23.5319 32.7128 13.6426C35.8776 14.6267 38.7658 11.2289 39.3269 7.83001C39.8307 4.78053 38.4615 1.73105 33.7402 1.84826C30.2954 1.9356 26.5055 4.18568 25.9951 7.84992C25.5972 10.7048 27.4436 14.0981 30.4254 14.3834C29.1588 23.5529 33.1934 34.1531 40.405 39.8407C40.6409 40.0276 40.8867 40.0961 41.1193 40.1017C39.8031 41.497 38.4263 42.8305 36.9315 44.0058C36.2337 44.5554 36.5412 45.7031 37.2005 46.1044C39.425 47.4545 41.8413 48.8454 44.3293 49.7598C40.2837 53.9858 36.4564 58.4704 32.1737 62.4454C28.8193 65.5579 21.8558 68.9678 26.6697 73.4657C27.0589 73.8284 27.4689 74.1723 27.8713 74.5228C24.3625 78.2855 21.3013 82.4574 18.2489 86.5947C16.5634 88.879 11.1178 94.0127 11.2567 96.966C11.3658 99.2867 14.7324 101.224 16.4168 102.386C17.1135 102.867 17.83 103.304 18.5587 103.716C16.9195 105.136 15.503 106.839 14.0501 108.436C13.0106 109.579 11.6558 110.731 10.6096 112.003C8.24952 109.294 1.82613 104.588 0.179229 108.537C-0.722491 110.699 1.9926 112.63 3.55132 113.579C5.47932 114.755 7.83173 115.55 10.107 115.323C10.3781 115.424 10.6945 115.427 11.023 115.243C13.0613 114.103 14.5891 111.692 16.0839 109.92C17.5125 108.225 19.004 106.476 20.0733 104.519C22.5448 105.733 25.1694 106.592 27.9077 107.089C28.2681 107.155 28.5746 107.072 28.8248 106.916C29.0299 106.957 29.2492 106.919 29.4311 106.738C32.0845 104.074 34.8062 100.969 36.8422 97.7997C37.4672 96.8243 36.0408 95.7277 35.2438 96.5635C32.9222 98.9995 30.7991 101.962 28.9692 104.857C28.8546 104.782 28.7333 104.711 28.5713 104.673C25.2918 103.853 22.1314 102.792 19.2443 100.982C17.9116 100.145 15.1667 98.8742 14.7942 97.4813C14.3918 95.9709 15.5912 95.0099 16.7861 93.348C20.9838 87.5081 25.391 81.6977 28.8579 75.3786C38.0371 82.955 50.2544 87.3927 62.022 89.2219C59.2386 96.706 57.1739 104.928 55.3032 112.735H55.3021C50.9809 112.845 45.3225 112.687 41.558 110.168C39.5749 108.839 40.782 107.316 41.4224 105.198C42.1434 102.817 42.8588 100.445 43.3659 98.0095C44.9973 98.0795 46.62 97.8307 48.1181 97.1781C48.9967 96.7967 48.5657 95.2557 47.6242 95.3507C41.7278 95.9441 37.1542 94.9469 33.1846 90.1816C32.5805 89.4561 31.4594 90.3859 31.9059 91.1711C33.8052 94.5103 37.5466 97.0343 41.4908 97.7897C40.3069 100.588 39.3622 103.483 38.4263 106.374C37.852 108.143 36.9844 109.98 38.585 111.409C40.2892 112.93 43.3835 113.765 45.6025 114.312C44.2257 118.716 43.2722 123.393 42.3969 127.923C42.3495 128.165 42.3704 128.385 42.4289 128.582C41.8204 129.052 41.6187 130.096 42.4862 130.59C45.2355 132.159 56.1575 135.7 55.7695 129.358C55.4729 124.543 49.291 124.849 45.3953 126.418C46.2904 122.566 47.1183 118.631 47.611 114.736C50.1277 115.2 52.7039 115.355 55.247 115.108C55.6637 115.5 56.3714 115.577 56.6491 114.932C60.0311 107.089 63.1728 98.0419 64.4185 89.5588C65.4095 89.6841 66.3972 89.7955 67.375 89.8841C67.9703 89.938 68.7264 89.3809 68.8279 88.7762C70.4252 79.1234 71.2762 69.4267 71.3853 59.6734C74.4036 60.5956 77.4923 61.291 80.5679 61.9843C81.1676 62.1203 82.0031 61.8052 82.1078 61.1075C82.3658 59.397 82.5709 57.5218 82.5907 55.6432C91.5186 56.1474 103.056 50.8379 107.677 42.7642C109.131 44.7334 112.479 45.294 114.586 44.4172C117.708 43.1191 118.764 39.09 117.441 36.1499Z" fill="#8DD9E5"/>
    </svg>
    <svg id="facebook" width="6" height="12" viewBox="0 0 6 12" fill="none" xmlns="http://www.w3.org/2000/svg">
        <path d="M4 6.9H5.42857L6 4.5H4V3.3C4 2.682 4 2.1 5.14286 2.1H6V0.0840001C5.81371 0.0582001 5.11029 0 4.36743 0C2.816 0 1.71429 0.9942 1.71429 2.82V4.5H0V6.9H1.71429V12H4V6.9Z" fill="#122659"/>
    </svg>
    <svg id="vk" width="14" height="8" viewBox="0 0 14 8" fill="none" xmlns="http://www.w3.org/2000/svg">
        <path fill-rule="evenodd" clip-rule="evenodd" d="M6.84965 7.96651H7.68648C7.68648 7.96651 7.93926 7.93871 8.06831 7.79936C8.1871 7.67143 8.1833 7.43117 8.1833 7.43117C8.1833 7.43117 8.16695 6.30644 8.6881 6.14082C9.20183 5.97767 9.86152 7.22785 10.5608 7.70855C11.0895 8.07236 11.4913 7.99259 11.4913 7.99259L13.3609 7.96651C13.3609 7.96651 14.339 7.90616 13.8752 7.1359C13.8372 7.07289 13.6051 6.56611 12.4851 5.52477C11.3128 4.43487 11.4698 4.61116 12.882 2.72588C13.742 1.57774 14.0858 0.876778 13.9784 0.576558C13.876 0.290616 13.2434 0.366194 13.2434 0.366194L11.1383 0.37933C11.1383 0.37933 10.9823 0.358008 10.8666 0.427304C10.7535 0.495268 10.6807 0.65366 10.6807 0.65366C10.6807 0.65366 10.3475 1.54214 9.90315 2.29773C8.96577 3.89212 8.59098 3.97626 8.43779 3.87727C8.08143 3.64653 8.17037 2.95034 8.17037 2.45574C8.17037 0.910665 8.40434 0.266439 7.7148 0.0996707C7.48597 0.0442718 7.31758 0.00771992 6.73238 0.00181831C5.98127 -0.00598703 5.34552 0.00410255 4.98554 0.18077C4.74607 0.298231 4.56133 0.559995 4.67385 0.575035C4.81297 0.593692 5.12809 0.660132 5.29515 0.88801C5.51087 1.18195 5.50327 1.84217 5.50327 1.84217C5.50327 1.84217 5.62719 3.661 5.21381 3.88698C4.93005 4.04194 4.5408 3.72554 3.70511 2.27908C3.27691 1.53814 2.95362 0.719148 2.95362 0.719148C2.95362 0.719148 2.89128 0.566087 2.78009 0.484226C2.64515 0.385041 2.45661 0.35344 2.45661 0.35344L0.456232 0.366575C0.456232 0.366575 0.155938 0.374952 0.0457033 0.505739C-0.0523675 0.622058 0.0379107 0.862691 0.0379107 0.862691C0.0379107 0.862691 1.604 4.53273 3.37726 6.38221C5.00322 8.07788 6.84965 7.96651 6.84965 7.96651Z" fill="#122659"/>
    </svg>
    <svg id="instagram" width="12" height="12" viewBox="0 0 12 12" fill="none" xmlns="http://www.w3.org/2000/svg">
        <path d="M6 0C7.6302 0 7.8336 0.00599997 8.4732 0.036C9.1122 0.066 9.5472 0.1662 9.93 0.315C10.326 0.4674 10.6596 0.6738 10.9932 1.0068C11.2983 1.30674 11.5344 1.66955 11.685 2.07C11.8332 2.4522 11.934 2.8878 11.964 3.5268C11.9922 4.1664 12 4.3698 12 6C12 7.6302 11.994 7.8336 11.964 8.4732C11.934 9.1122 11.8332 9.5472 11.685 9.93C11.5348 10.3307 11.2987 10.6936 10.9932 10.9932C10.6932 11.2982 10.3304 11.5343 9.93 11.685C9.5478 11.8332 9.1122 11.934 8.4732 11.964C7.8336 11.9922 7.6302 12 6 12C4.3698 12 4.1664 11.994 3.5268 11.964C2.8878 11.934 2.4528 11.8332 2.07 11.685C1.6694 11.5347 1.30652 11.2986 1.0068 10.9932C0.701644 10.6933 0.465559 10.3305 0.315 9.93C0.1662 9.5478 0.066 9.1122 0.036 8.4732C0.00779997 7.8336 0 7.6302 0 6C0 4.3698 0.00599997 4.1664 0.036 3.5268C0.066 2.8872 0.1662 2.4528 0.315 2.07C0.465142 1.66931 0.701282 1.30639 1.0068 1.0068C1.3066 0.701539 1.66946 0.465438 2.07 0.315C2.4528 0.1662 2.8872 0.066 3.5268 0.036C4.1664 0.00779997 4.3698 0 6 0ZM6 3C5.20435 3 4.44129 3.31607 3.87868 3.87868C3.31607 4.44129 3 5.20435 3 6C3 6.79565 3.31607 7.55871 3.87868 8.12132C4.44129 8.68393 5.20435 9 6 9C6.79565 9 7.55871 8.68393 8.12132 8.12132C8.68393 7.55871 9 6.79565 9 6C9 5.20435 8.68393 4.44129 8.12132 3.87868C7.55871 3.31607 6.79565 3 6 3ZM9.9 2.85C9.9 2.65109 9.82098 2.46032 9.68033 2.31967C9.53968 2.17902 9.34891 2.1 9.15 2.1C8.95109 2.1 8.76032 2.17902 8.61967 2.31967C8.47902 2.46032 8.4 2.65109 8.4 2.85C8.4 3.04891 8.47902 3.23968 8.61967 3.38033C8.76032 3.52098 8.95109 3.6 9.15 3.6C9.34891 3.6 9.53968 3.52098 9.68033 3.38033C9.82098 3.23968 9.9 3.04891 9.9 2.85ZM6 4.2C6.47739 4.2 6.93523 4.38964 7.27279 4.72721C7.61036 5.06477 7.8 5.52261 7.8 6C7.8 6.47739 7.61036 6.93523 7.27279 7.27279C6.93523 7.61036 6.47739 7.8 6 7.8C5.52261 7.8 5.06477 7.61036 4.72721 7.27279C4.38964 6.93523 4.2 6.47739 4.2 6C4.2 5.52261 4.38964 5.06477 4.72721 4.72721C5.06477 4.38964 5.52261 4.2 6 4.2Z" fill="#122659"/>
    </svg>
</svg>
